<mxfile host="app.diagrams.net" modified="2024-04-02T03:21:30.536Z" agent="Mozilla/5.0 (Windows NT 10.0; Win64; x64) AppleWebKit/537.36 (KHTML, like Gecko) Chrome/123.0.0.0 Safari/537.36" version="24.2.1" etag="dmjvHvTVwW5Con41g88c" type="device">
  <diagram id="sCPG1AK4fbG-RlWU08DR" name="페이지-1">
    <mxGraphModel dx="1415" dy="2020" grid="1" gridSize="10" guides="1" tooltips="1" connect="1" arrows="1" fold="1" page="1" pageScale="1" pageWidth="690" pageHeight="980" math="0" shadow="0">
      <root>
        <mxCell id="0" />
        <mxCell id="1" parent="0" />
        <mxCell id="bQvXC9ChqrMoX_zcABg8-1" value="" style="shape=image;verticalLabelPosition=bottom;labelBackgroundColor=default;verticalAlign=top;aspect=fixed;imageAspect=0;image=data:image/png,iVBORw0KGgoAAAANSUhEUgAAAi4AAAH8CAIAAAB5NrMxAAAAAXNSR0IArs4c6QAAAARnQU1BAACxjwv8YQUAAAAJcEhZcwAADsMAAA7DAcdvqGQAAE1ySURBVHhe7Z3PqzzNVf+fjX+GG3H7UTAY8C6+C39iRPSCZBGMiOKAMYvchQlIlESNBozccWVMHjS4iZgL6mbMxmwCJq7iflAQF/4Zn+85p35MTXVPT1X3dPepOu8X7+c+/enpmblV9a5zuufWmf7gPQAAALArSEUAAAB2BqkIAADAziAVAQAA2BmkIgAAADuDVAQAAGBnkIoAAADsDFIRAACAnUEqAgAAsDNIRQAAAHYGqQgAAMDOIBUBAADYGaQiAAAAO4NUBAAAYGeQigAAAOwMUhEAAICdQSoCAACwM0hFAAAAdgapCAAAwM4gFQEAANgZpCIAAAA7g1QEAABgZ5CKAAAA7AxSEQAAgJ1BKgIAALAzSEUAAAB2BqkItMoH4BrfLwA0COwLWkWC7/chJ6Qi0DSwL2gVpKJUSEWgaWBf0CpIRamQikDTwL6gVVZPRefX03mwM9fb8fhyPL6e33//fOKfgwM2ElIRaBrYF7TKQ1PR24kyyukt2fj++9PLkVIR/Ty+nM5vJ94pycnv4SfSwZx+zm/ns2yHh2TD5adk4/SWbiTv/gAhFYGmgX1BqzwwFZ2Pzz5PhA3eTzmDksr59Xh8PhzfzpRjTi8nOibsoWN8KhLR9uly8LPPQGFjPNs9TkhFoGlgX9AqD70qYp3PPj1Isnnh1CKfv51OknjOr4fjq/tEzu+hg+WiR5IQpSLa6R6SPSfOamEjffEHJyEnpCLQNLAvaJWHp6KmhVQEmgb2Ba2CVJQKqQg0DewLWmWbVPTJv335qT/7VfqZ7dcmpCLQNLAvaJUNUtFPfOEX/vk/v/Xv//3db3zv6z/62f+XPapKSEWgaWBf0Cprp6JPfP0zf/e9r9Eb/dV3vkI///zbX/rtv/8c7eeldLJc263n9jq7BXiXBXUbC6kINA3sC1pl7VT0kT/+5dfvfO27//Uf7z7/sz/2hz/30T/92Ee++Eu0/3T44IPDK6/SplR0fj0caOPt+PTucOIF3+fzy/EgWer0cqCNwcuuJKQi0DSwL2iVtVMRXQP9xoefojf6vW/+Af385Ief+vQ/fJH2nyj3HJ+fniQDHZ55wfeB0g9t0EPvng58YXSmnZSc6J9uzff6QioCTQP7glZZOxWRfuzzP/+b3/jdL337K/Tzo3/yK24npSJOP0/v6KpIcs/z0+GVNuiqiB6i9MM6yvbxmXbGV1tVSEWgaWBf0CobpCLSr331Uz/9F5/49Q+xgg6AFYF9Qatsk4paEVIRaBrYF7QKUlEqU6mIGhvxu1bGv5ngd62Pfz/B7+oXQ/YFnSHzM4/IZmUhWkUkOHuyf67B9u9IDN+0b/pvIegVmZ95RDYrC9EqIsHZk/1zDbZ/R2L4pn3TfwtBr8j8zCPybjq9Hk6v+c4NZSFaRSQ4e2RH3huP1vbvSEIqAqAFZH5ms/dhOp1ez5xdno+0ceS7RcidIF6Px1eXdU6nF75nBG3QQ3LM4fTinrVZWWsqC9HqNnlvPFpDsgPWkC2QikCrrJuKji4VyV2LDi/Hs+SY4+vR7aE8dKJ0xdv0EO2nDTkYqWgjqL0PNoDK+8eHZvYPUhFolQdHohtyGeg66MgV0tWe/WUkYEUkRM82wNgddeWmveFu8VruHx+a2T9IRaBVFkSiDmUkYEUkRM80QEP3jw/N7B+kItAqbpaCiO8XG4Qm57G7XE3cPz40s3+QikCrLIxEnclIwIpIiO7fAKGZ/YNUBFrFQiQql5GAFZEQjVTUD0hFoFUsRKJyGQlYEQnRDzaAwpvHh2b2D1IRaJWHR6KmZSRgRSREP9IAOm8eH5rZP0hFoFWySPS/n/sCKf4zlH24VbnpHtGyPyYrlJGAFZEQ/bBUdOvm8bsrNLN/kIpAq2SRiPLQ/335GP/JiYfXO8laW0lCXCHEe7hq5HjgG9/FgzuQkYAVkRD9sFR08+bx5B++HeJlDbeXfNcGGcwtn8sffZxCM/sHqQi0ynQkkrW2r+/fvx7DLb0pZFAeOsueVcPHLjISsCISoh+Wim7dPJ4Xc7s7xIudOPcc5FTm6d3T8VV+cgXS+fxChxV8WUO1QjP7B6kItMp0JHKJRxKSvyq6TkXPawSOHWUkYEUkRD8sFZFGbx4fU5HcRV6+OuHg0s8z18PKT7mpvKSr5NUepdDM/kEqAq3y2EjUuowErIiE6AcbYOzm8Wkqou3nsVT0fDi8Y4Xr7wcqNLN/kIr2wTmsOfxvrwP5ffKpa1baRmdtxI/9GyA0s39s2VcPLc4ibVOixT5cT0YCVoTaa8EAoZn9Y8u+emhxFmmbEi324XoyErAi1F4LBgjN7B9b9tXDnFm09/1UtE2JOX3Yr4wErAi114IBQjP7x5Z99XBvFo19w7x8iX24e8oO91PRNiWyPsxKXLkTKBm7n3Gnf4i/iZl7NX598qPT9vYyErAi1N7MAJtqq/vHh2b2jy376mF6FvHKHH33U9E2JbI+zEpcj7yi6eXgFtq6uwCElCM9w/0mq54kE1+qX31qL+kQVTISsCLU3swAS6T2/vGhmf1jy756KJlF2u6nom1KTPchtZQzCosL5ulnkl049xwPFFz4AJecZINDD0efpDC2FRkJWBFq77QBqqT2/vGhmf1jy756eOAs2kzapsR0H8pXtrg8xGmGL3rk6ocvDXnbpSL/nS5JKpJszVkcqUg11N5pA8yTy0DysUGUWOJqz3YKzewfW/bVwxqzaG1pmxIr9SHHHc5V+X7lMhKwItTelQygSqGZ/WPLvnpYMov2uquKtimxpA/7k5GAFaH2WjBAaGb/2LKvHmbPoh3vqqJtSszuwy5lJGBFqL128G3uGlv21YPYK48md7XvXVW0TYl5fdirjASsCLXXggFCM/vHln31MG8W3bqrytktEsvWH5+LqoXKpW1KzOvDXmUkYEWovRYMEJrZP7bsq4d5s+jWXVX8N9gf3x1OvJ473lLlQMnJ/1OWjR2lbmbwsoXSNiWyPsxLXCc0un497pSl85zX43p3WXfnH9UqIwErQu3NDNClQjP7x5Z99TB7Fo3eVcWlovenZ0pFnHLke+yzO6zIXVUW3aRH25TI+jArcXUZhbvFbVySsdzC9eQfTXfyvdHcCroGC2CNBKwItTczQKZwAtH2HeVDM/vHln31MD2LpjW8q4pLM09PV7dUoZ0Hrp5x/3ylzBS/lGGetE2J6T6USlXaeJMN/kk5Jt43Lxa9Jju5wMg9hWJWcwWwRgJWhNqbGSC7LObEw+cN7HmXhOhnOKWQ05EFp2WbKTSzf2zZVw/ZLGpC2qbEdB/yxQ3FnVPcSLMOV7YOd1KakYBF+9srgDUSsCLU3swA2WWxDNPVeUM2juHMQ7VCM/vHln31kM2iJqRtSuzSh5yKJMNl+3eXkYAVofZOG8AlHnfe4K6KrlNRG3eUD83sH1v21cP0LNIpbVOixT5cT0YCVoTaa8EAoZn9Y8u+emhxFmmbEi324XoyErAi1F4LBgjN7B9b9tXD6rNohfupaJsSq/dhUzISsCLUXgsGCM3sH1v21UPtLNJwPxVtU6K2D/uWkYAVofZaMEBoZv/Ysq8eameRhvupaJsSWR9ma3kndak1YQ1LTBqscjUSsCLU3swAXSo0s39s2VcPs2eRy0DXYVGukK72rCJtUyLrw2wtr6zJ5hsM8jIq90/Xb7whq7F5I5SYXCpe/VKr5qpcjQSsCLU3M0CugiLWqzMMlUWvoZn9Y8u+ergzi1RK25SY7kNKJ2dX8CulrOFO6q7ilZfzyr1xOSfxet9wWHh6e1WuRgJWhNqbGSC7LD4ePnjiMaJzCD4RcacXyakJJ6HkDENp0WtoZv/Ysq8eslnUhLRNiek+lFQk1zcUa/hSkjYo2cgeKX7kACQ3YpdU5A6LZfn8lLaqXI0ErAi1NzNAdlksw8TDSonnxEt4+G+o8dQkHpMOKw10fLoShWb2jy376sE5rDn8b68D+X3yqbuBXIDTVuWqbXTWRvw4ZQAuYj29Hg68jpS/9UqGLIxdM0WvoZn9Y8u+epieRTqlbUq02IfryUjAilB77xpArm55Q+cVT4lCM/vHln31cHcWKZS2KdFiH64nIwErQu21YIDQzP6xZV89tDiLtE2JFvtwPRkJWBFqrwUDhGb2jy376mF6FrkPstPyl7BHtNOqU21TYroPrclIwIpQey0YIDSzf2zZVw/ZLMrWoXLiOb24pcZhTdf+q061TYnpPoxKszhv54m87VurRRkJWBFqb2aALhWa2T+27KuHbBYN1qHyamNtt1rRNiXu9CEnmFeuVPVZ3GX0l0NS0BrLXV0SCkfqrTKZkJGAFaH2ZgYo1fAkQ/GXa4Rm9o8t++pheha5xOOKV9ys0LDqVNuUmO5D/qY+V1MiPelSkXRjLGilzlSX72fLSMCKUHszA2SXxbJ8LnzdhpyRnH1pUUtfrhGa2T+27KuHbBY1IW1T4k4fUmThTEOBhhIPpSVf3yqpyBeXcAxSlu9ny0jAilB7MwMMPlqgobxzO/lwMBtA55drhGb2jy376iGbRU1I25RosQ/Xk5GAFaH2ThtAcg//DKcdnH7otENS0VWhq+Yv1wjN7B9b9tXD9CzSKW1TosU+XE9GAlaE2ruNAUIyy/dvo9DM/rFlXz1sM4seK21TosU+XE9GAlaE2mvBAKGZ/WPLvnpocRZpmxIyScEF3y82CE3OXdqZQjP7x5Z99VA9i87+c+1kz+vxyJ93b7YCVduUqO7DrmUkYEWovRYMEJrZP7bsq4dsFg3XofIn1GEhqStzeeJlP3FZqnyEve0KVG1TIutDpx/5o598/Z9vZDstyEjAilB7Rw3QmUIz+8eWffWQzaJ8Haq/vUp6e7fLkp5w2NYrULVNiawPnSgVyYP5/u5lJGBFqL2jBniMYhns3tWvoZn9Y8u+epieReH2Km80DdLbu7lU5CbD9itQtU2JrA9/6Iu/+Pv/evzxf/qYZKMQMs78hQuXw4afc3pR1r+OMi70lEeiFY7Mfp/BVxZdyUjAilB7MwNkHy24fubv1HAbPL7uowLu/HQ7Hul2ug8hDqEmeuPPHjKFZvaPLfvqIZtFmWgCjEexYvEU4mmW718ibVMi7cOPf/Mz3/rB33zrB199Of2l23M6cjThYEEhwwejEGKyICUxyNXehyjjv/inPBKtcWT++9D27QE1ErAi1N7UAKTsowX5YIA2rqtcz9yHtEG9GrYvFa98QDiTCxOQR2fH6tfQzP6xZV89ZLOoCWmbEmkf/tY/fublXz5L+uGvfNzt4WhCsftAqegqGMkHniFIXcWgNMrEYFQeiR5/5OD3ia8wIiMBK0LtTQ0wFPUYJ/Lkzq3chyOpiLcvB/jeJmPwVRFbaNvPHjKFZvaPLfvqYXoW6ZS2KZH24c98+Om//rcvf+zrvxP3SFj5/ile3PhYwwElhJ50/zDKcDCSR+9HIn/58ugjaWf6+5zoGg5XRQFqb2qAXcSDJUbK9j9QoZn9Y8u+enAOaw7/2+tAfp986s5U9iclv/ON8kS+M9ElEm1zJKWxbE8ibaOzNuLHxxlAq0Iz+8eWffXQ4izSNiVa7MP1ZCRgRai9FgwQmtk/tuyrh9FZpLwmRtuUGO1DszISsCLUXjv4NneNLfvqQeyVRxPlNTHapsRoH5qVkYAVofZaMEBoZv/Ysq8eslmU1cTolLYpkfWhcRkJWBFq76gBlH+0UKvQzP6xZV89pLNoWBNzPvF3/Byz0rnxCsdFtZnTVZOZtE2JtA9JLp2ne3KdeVmadAJ/k4XvutH+qekWJTISsCLU3swATso/WqhVaGb/2LKvHtJZNF4TQxtS9+BqHn2Ro6zu5QJJ3unrHhbVZrq3CL/JtLRNibQPh+k8aSNn5RNXEb07uHum+dXSrsqVe0A6J+/D+OJNyEjAilB7UwOQmvhooVahmf1jy756SGfRrZoYHyU5knLolOzit8+hBM8dST8phsbCFH5uaR2l++nfd1rapkTah8N0HtpInXCpYz0dn59C20NH+R4Y68OWZCRgRai9qQHGvm7jRYZ+8GEAnXAcfEVX2Dn+0cJwT+GHDawHfSwRmtk/tuyrh3QWDUUR01VB8rk8BVD/NXTvnviknrb5WwNogxKVC5rXYbSiNpMDcRdXRaPp3LWRN7g3pGckN8f9Ehq4BzhtX/fhSJmRbhkJWBFqb2qA4bkIyQ2xfGPCW/rpwgdPPInkJM99qDD+0cJwD3up5MMGZ79HfCwRmtk/tuyrh3QWLdLC2kyaHoNHb0nblJjuw0sbBw95ua6r6QHNMhKwItTe1ADDcxGSS0XuZ/x0QVKC26br46vDKD2kl8XDPcUfNpQfGY8fV2hm/9iyrx7SWdSKtE2JFvtwPRkJWBFq710DxIxyTj5dCKmIE4M7WYmHhVQhF9CcMPI9cvz9Dxv8BVDBkXc/lgjN7B9b9tXD3VmkUNqmRIt9uJ6MBKwItfdhBij8aGHJlzZd63LkvYvy0Mz+sWVfPTxsFm0obVOixT5cT0YCVoTaa8EAoZn9Y8u+eshm0f2aGAXSNiWyPjQuIwErQu21YIDQzP6xZV89pLNopCZmKAXlmdqmRNqHpJklrtddN7G49vq5Vw9pkJGAdYO8N7qQLZCK9iENoyPrUE/8F05Z68l/O1VSnqk5FY19YwV1iCSPyT6U3ku6jra5S6Xz38ufENzTXdIKz43vq0emUhE1NiI7uAea+GihRsNm9owh+6pCvOU9N1yHGtZ6vqoqz9Q2H9I+HKbzUAVMCWaqDwdd57v0TAdzrkrvAEtJKK7B9e+rRxaiVYQaG5EdzXy0UCOkIrA+4q3MeRe5oEln37whZ+j0z93LM7XNh7QPx0tcQxXwRB/Sz+uu813KxYmceNKn85HuufFd9MhCtIpQYyOyo5mPFmqEVATWR7yVOe+iEP7y/RftUZ6pbT5M9+F9jS7h3bZLHygL0SpCjY3IjmY+WqgRUhFYH/FW5jzt0jYfWuzD9WQhWt0m7w2SSzzaPlqokS2QivYBqWg5SEWprKUiau+0AUIGyvdf1MI3P4Vm9o8t++phehbplLYp0WIfricjAStC7bVggNDM/rFlXz1kswglrjPI+tC4jASsCLXXggFCM/vHln31kM6i+etQr5efrl2eqW1KpH1IKihx5ZtruHvYnHiNXOxSp6ulvW7Zlay/8nuuD1YnIwErQu3NDNClQjP7x5Z99ZDOopGaGF5UKoFPU3mmtimR9uFIOpeeydbyulvOUMdSbxwOfP+n7KY1cWmv77eCO9MokZGAFaH2pgYgdVfiygrN7B9b9tVDOouG61B1lmdqmxJpHw7TubSd2nu1ltd1Wuw6zs3XjyZdxLnHLbiSTk57m7WwMx8uIwErQu1NDdDKRwu1Cs3sH1v21UM6i4aiqKewPFPblEj7cLzENfRV7EO6oKF/hq7jG8lwt4QukkDj+1B2ltxvxr/d7jISsCLU3tQArXy0UKvQzP6xZV89pLNojvYoz9Q2Jab7kLOFhJVs/03VLO2tfvH1ZSRgRai9qQFa+WihVqGZ/WPLvnpIZ1Er0jYlWuzD9WQkYEWovdMGkNMFdR8t1Co0s39s2VcP07NIp7RNiRb7cD0ZCVgRau9SA7TwzU+hmf1jy756WDqL9pC2KdFiH64nIwErQu21YIDQzP6xZV89ZLMIJa4zyPrQuIwErAi114IBQjP7x5Z99ZDOouJ1qM9H/rQ6+Zz6qkhz9QpNbVMi7UPSQ0pcC/tN25JfkpGAFaH2ZgboUqGZ/WPLvnpIZ1HhrVa4HjM+RDtl7ekTB1a30pRXpq5aoaltSqR9OEzno2t575a48t+oS/rN97Prw/2X/JKMBKwItTc1AAklrk1jy756SGdR4a1WuCrCBUeOen4JEIW/ZB0qPZe35UU4hj62QlPblEj7cKSsZGwtr+uH2BvcjdePFveb7z09N3s1ErAi1N7UAGUfLVwui2Wsb+nqAwY+t4gP3b4aXkmhmf1jy756SGfRUDRh4nrTuA7VFVpKvONVqvKo28lRL0TSFSs0tU2JtA/HS1wHa3npqsV1lPQG94x0pnuU98uFTkm/6VrySzISsCLU3tQAhR8thMti9/EpTRMecR67eF0bro+V3N01NLN/bNlXD+ksGirEtXz/lNav0NQ2Jab7sFqjS3uvdem3sn7eUkYCVoTamxqg8KMFd27B5xwylPyR7IkvZ+lndli8rqV/Uh66PuHbTqGZ/WPLvnpIZ1Er0jYlWuzD9WQkYEWovdMGoLThrk15g08gaONyWUxnHoeDXM5SBpLTi+SwkIrkqogvrS6piF8hfZe1FZrZP7bsq4fpWaRT2qZEi324nowErAi1d9oAIbXk+53kk1jeCIknUc0HDGsrNLN/bNlXD9OzSKe0TYkW+3A9GQlYEWqvBQOEZvaPLfvqIZtFKHGdQdaHxmUkYEWovRYMEJrZP7bsq4d0Fj2wxNWtApJVQ/6w5ICL5lVoapsSaR+SCkpcqUW8/vDmWt7RbpFnrV0+vFxGAlaE2psZoEuFZvaPLfvqIZ1FhbdaKSlx5c/HV6vQ1DYl0j4cSeeXxg76kFL4VZMv/ckrufngq53Uk/xnA903eDUSsCLU3tQAJJS4No0t++ohnUWFt1pxMZEDH8dQvzSIot71MtMVKzS1TYm0D4fpPDT2apGu6xM5IG1y7MPn64pXtzM+K/ZJYSe7N9pIRgJWhNqbGuDxJa7plS6fu9wc0HDkKl/1FJrZP7bsq4d0Fg1FE2ZYnllS4ioXOi5KPr5CU9uUSPtwvMRVWpE07Vlax/GILl+S/bF/uNNGd0rPr1g+vFxGAlaE2psaoPCjhfISVz/Q/JC7XKZBl9es+SBhuUIz+8eWffWQzqLHaP0KTW1TYroPL40dPFSt9cuHl8tIwIpQe1MDFH604M4b6OfdElf6mZ5euA15WffEog8Slis0s39s2VcP6SxqRdqmRIt9uJ6MBKwItXfaAJQ/Jr75iU4vpktc6WeSina7u2toZv/Ysq8epmeRTmmbEi324XoyErAi1N4lBpCP2njDJZ70ofEPGGZ9kLBcoZn9Y8u+elgyi/aStinRYh+uJyMBK0LttWCA0Mz+sWVfPWSzCCWuM8j60LiMBKwItdeCAUIz+8eWffWQzqKRdajpylFZqHPk+hi/kz+wjo9etHoZprYpkfYhae0S18Iu3XHVr+8XG1B7MwN0qdDM/rFlXz2ks2ikJibWWro1xwUFlW4FKu7iGtO5rK+V0O8W3cpa3iUlroUDsdcNXo0ErAi1NzUACSWuTWPLvnpIZ9FYTYxbHuoXjHJquVdQGf76ytvyIkXPiu9YIm1TIu3DkbKSsbW8rivkgHQxrusWXig1WeJa2KXu5w6rfn2/2IDamxqg8tuzSi6LV/+YoUShmf1jy756SGfRUBIT/VJROb++X1ApoZOeu2IZprYpkfbheInrcC2vhCHeU1/iWjgQcQi2X/Xr+8UG1N7UAMNzkalvfqJThOxq1ZcWXV0Wr/0xQ4lCM/vHln31kM6iJQphjueVTIkVyzC1TYlH9eF9rV8+vFxGAlaE2psaYHguEq5TKcGkl8W0QWcS/jr13mUxvQ7vlxd8/McMJQrN7B9b9tVDOotakbYp0WIfricjAStC7Z02AJ8cyAUob/BZgss0/qrIfQNQ3E/pR47kA8LOkIpW+5ihRKGZ/WPLvnqYnkU6pW1KtNiH68lIwIpQe6cNEDJNvr9UOr7tKTSzf2zZVw/OYc3hf3sdyO+TT12z0jY6ayN+7N8AoZn9Y8u+oCcsRKJyGQlYEQnRSEX9gFQEWiWLRCUlrnfW8rKu60/1re69JSMBKyIhGqmoH5CKQKukkajuLq7pWl63StslJ96QPz7Lc4dFr/xnA633cjUSsCISoq9SEUpcmwapCLRKGomK7+KarOUN+y/FsGFJLiWYZEnV5ely0cMHyFvss7r3lowErIiE6IsBVipxLbz2Xe/bnkIz+wepCLRKGokK7+I6tpZXKl5jMSw/haNPep/c8PSQinZd3XtLRgJWREL0xQCFd3GtLXHlcSy59l3t255CM/sHqQi0ShqJhuIgwqEh3z9fuu/laiRgRSREXwxQeBdX2QiXxUUlroXXvu7n47/tKTSzf5CKQKukkQgyErAiEqKnDCBnA+FiV65X3DWuuyoqLHGVC52Sa9+1vu0pNLN/kIpAq0xHImsyErAiEqLXNICOb3sKzewfpCLQKutGotZkJGBFJET3b4DQzP5BKgKtYiESlctIwIpIiEYq6gekItAqWSTapsTVrYw67re695aMBKyIhGikon5AKgKtkkaiuru4Lihx5T8P7Lq695aMBKyIhOirVIQS16ZBKgKtkkai4ru4Jmt5Z5a47ry695aMBKyIhOiLAQpLXGUIaLzchWm95BW2/P6n0Mz+QSoCrZJGosK7uI6t5a0rcZULnT1X996SkYAVkRB9MUDdXVzPl89a5TrVHckHp9vX183+KplOQXix3Fbf/xSa2T9IRaBV0ki0hXTfy9VIwIpIiL4YoPgurpKKWOl16stZUos/wG9nF8T0Uukr8D/d65RdJbs3rVZoZv8gFYFWSSMRZCRgRSRETxmAUoK79OQNucqhf0qekOvgqxLX0VTE25cDfCoKF9b0T7kqkgNKrpKvfrdyhWb2D1IRaJXpSGRNRgJWREL0vVTkrlAHDy3Stt//FJrZP0hFoFWmI5E1GQlYEQnR/RsgNLN/kIpAq1iIROUyErAiEqKRivoBqQi0ShaJCkpcX31VKa+Muqy4lXVu2af5rv70atkuHxYPyI/fX0YCVkRCNFJRPyAVgVZJI1HhXVx5Zbb/BN+tuOXscj69HJJSVnki/6mZ9qfLdsNT/KLe473VdBvLSMCKSIi+SkUocW0apCLQKmkkKryLqyyOenXbJ1/Z6pY8xZW7/BS3AJeP55fibXpBOeyyMupyhaRDRgJWREL0xQAbl7i68xs50Rm7aA5a/v1PoZn9g1QEWiWNRIV3caULmhOlHF7IS4mH9vvKVklF8bDLE30qCsWMSSqil/JvpERGAlZEQvTFAHV3cV1c4somKals9ZfUsj3r+59CM/sHqQi0ShqJhgoZKN9foZplu7vLSMCKSIi+GKD4Lq7xcnZhiWthZav7Of/7n0Iz+wepCLRKGokgIwErIiF6ygCUG4bf/CQJ4wElrnKhU1LZuvT7n0Iz+wepCLTKdCSyJiMBKyIheg8DbPv9T6GZ/YNUBFpln0ikVUYCVkRCdP8GCM3sH6Qi0CoWIlG5jASsiIRopKJ+QCoCrZJForVKXNNFurzy6uYn++HIB9+etVBGAlZEQjRSUT8gFYFWSSNR4V1cZ5S4UoKRI/1aXlnmKy8+d3nuSjISsCISoq9SEUpcmwapCLRKGokK7+I6o8RVHr2sjHIb8vr8p+kZy3NXkpGAFZEQfTHASIlrev0qpwt89jBZkeqvg+MTS5+1okIz+wepCLRKGokK7+I6o8RVHo2piF5h6fLclWQkYEUkRF8MMPJ1G/FK163bLqhIddfBm92htUShmf2DVARaJY1Eq2h02e7i5bkryUjAikiIvhhg7FzEXaT6y1ZOLfcqUmmnXPTwtrxI0bPiO66h0Mz+QSoCrZJGIshIwIpIiJ4yAKeicKUrf9u7X5F6SUVyVSTPLaljvXrfxyo0s3+QikCrTEciazISsCISoh9jAE4qnHXCdXDZhe/lWYOHHqjQzP5BKgKt4mYpiPh+sUgewR+tIdkBa8gWSEUAgMbwuVeQHVkQf7i2f0fS8E17BqkIANAYPjwL2T/XYPt3JIZv2jf9txAA0Bk+PAvZP9dg+3ckhm/aN/23EADQGT48C37Xyvg3E/yu9fHvJ/hd/YJUBAAAYGeQigAAAOwMUhEAAICdQSoCAACwM0hFAAAAdgapCAAAwM4gFQEAANgZpCIAAAA7g1QEAABgZ5CKAAAA7AxSEQAAgJ1BKgIAALAzSEUAAAB2BqkIAADAziAVAQAA2BmkIgAAADuDVAQAAGBnkIoAAADsDFIRAACAnUEqAgAAsDNIRQAAAHYGqQgAAMDOIBUBAADYGaQiAAAAO4NUBAAAYGeQigAAAOwMUhEAAICdQSoCAACwM0hFoFU+AGrwQwLAXOAh0CoSAb8P7S6kIrAcFR6S8yowE9+J9pC252ER2l6WTQgehZZUlJkbKhRSEbS7kIrAcpCK2hZSkV6dX0/nwc5cb8fjy/H4en7//fOJfw4OaEBIRWA5tlNR+8ECqUiH3k5kktNbsvH996eXI7mLfh5fTue3E+8Uv/k9/EQ6mB11fjufZTs8JBvOcsnG6S3dSN59ZyEVgeXYSUV9BgukIg06H5/90IcN3k82IJ+cX4/H58Px7Uy2Ob2c6Jiwh47x7hLR9uly8LM3VdgYN7AOIRWB5VhJRb0GC6QiPTqf/YiLf17YLXJJfTqJl86vh+MreeOyhw6W8xjxFbmLdrqHZM+JjRo20hffwldVQioCy7GSipz6CxZIRdDuQioCy7GVivoTUhG0u5CKwHKQitoWUlEr+uTfvvzUn/0q/cz2dyBTJqTGgkJ8l5WhwkPyS+f+XlXdxIXa8e6J7W0zWz/xhV/45//81r//93e/8b2v/+hn/1/2aOsyZcKGXLeval2hwkMbj25PccFUFMhoJSh84uuf+bvvfY1+4b/6zlfo559/+0u//fefk4fejgf+u2NcF9OoTJmwFdftrlpXqPDQlqN7Oy40KVNRIKOVoPCRP/7l1+987bv/9R/vPv+zP/aHP/fRP/3YR774S7T/dHjHtQTnl6fD6/n4cpS1ne9PL4cDr5FJX0G5TJlwa9c1W/tY6woVHtpydG/FBbfIm+JCW2eppqJAxtZBYa7oXOc3PvwU/cK/980/oJ+f/PBTn/6HL9L+49PziQ44vx4Or6cDbfMGF6Ud3j251ZuNyJQJ13TdWDWIFJzIOl46QWmp9rHWFSo8tGVMuRUX6BSVTk5PR/rJY+nOTEfOVWnDucTtkRy2Y/YyFQUytrTNQv3Y53/+N7/xu1/69lfo50f/5Ff8/tPzE7nugw8o8YRURHnoGalIM+u5LpY8xg3eTzmjzdrHWleo8NDGMWU0LlAsOHA2op882C4cDM5VX4+UqFzIeHrHx/tjrl5/S5mKAhkb22ahfu2rn/rpv/jEr384slJGYdVqlUyZcG3XdVP7WOsKFR7aPqYM4wJnFDpL5WRD2cifmQ7PVeXiSa6f+A/OzwcaZqSindjeNtCoTJkQritUrStUeKih0ZWP454pFWX795KpKJCBoKBEpkwI1xWq1hUqPITRnS1TUSADtlEiUybcxXUt1kHWukKFhxBTZstUFMiAbZTIlAm3d12jdZC1rlDhIcSU2TIVBTK6ss3p9XDS8qlvrUyZcGPXtVsHWesKFR7qKqZsK1NRIEOzbU6n1zNnl+cjbRx5EZQscHo9Hl9d1jlxVQBv80NyzOH04p614yqYeTJlwo1dd7sOkhdwn8kz9wtg91GtK1R4aLPRrQkQ7mCuIjod5SlyZHiFF3l6/vrby1QUyNg4KFSJPON8wgY7vBzPkmOOr0e3h3x1IoPxNj1E+2lDDpbDBq+mXKZMuLHrbtdB8sJdLhjypaySk66LHbkoxe0fvOwGqnWFCg9tNro1AUKylIwoHUMHyJFStCxJy6Wr7PW3l6kokLFxUJgnZ7BYgSgSa13taVumTLi9627VQcZUJBUmz6fzW1bsGPZfvdpmqnWFCg9tP7olAYIugOK2WpmKAhnb2wYalSkT7uK6YR0kJSGux+fvjuLE475egTaSYsfL/visLVXrChUeQkyZLVNRIIPaDpTgh8QA0th8GkJD1bpChYcwurNlKgpkwDZKZMqEcF2hal2hwkP0S4PZ+E60h7Q9nwDQ9jJlQriuULWuUOEhjO5smYoCGbCNEpkyIVxXqFpXqPAQRne2TEWBDNhGiUyZEK4rVK0rVHgIoztbpqJARmab//3cF0jxn+dTuEFLuClL2CNq/L4MqmTKhGsHq25qH2tdocJD06OLmDIhU1EgI7MN5aH/+/Ix/pNNwiV+vJjVGYZ+hqK/t6O7mXfydGi2TJlwOlgtVze1j7WuUOGhYUzJT28RU27IVBTImA4Kboq+f0+nk/5kRWYp3/mQ9tD25WwGWiZTJpx23QMleSU552a1VPtY6woVHspGNzu9RUyZkKkokDEdFJxJxDz+DObaNrtVofcnUyacdh0UVesKFR5CTJktU1EgA0FBiUyZEK4rVK0rVHgIoztbpqJABmyjRKZMSI0FhfguK0OFh+SXzv0Nlah2vHsCtlEiUyaE6wpV6woVHsLozpapKJAB2yiRKRPCdYWqdYUKD2F0Z8tUFMiAbZTIlAnhukLVukKFhzC6s2UqCmRktslqAKLcUpdsZ6Z4zNXBKIMtkykTTger4B8UQdpLRTTSXF3s/sk1yS9HMkEY8isf9ChTUSAjs01WA3B2JYFnXm+Z2kNu4E32eOWFl34PH+NcJHaSFZsogy2WKRMOXZeeAHHAQRGkqNYVKjw0PboxXsgYU6aRZONHl0eaN2TUXeg5n18Ph3cHyUmJD/huu/L0rk5MTEWBjMw2maT6j7NOSEUUCPhOYuwKNgznpLgnpivaIJOgZK1Kpkw4DFYoghxVrStUeGh6dK/ixZlyiUs5NLR86hFG2h3Mued44C9lcjsTH7BSi/QhU1EgI7NNJr6FJZ+1cHQ40hmJ+5YUdx5DJytsBjGS7JENfzaTBA6UwRbJlAnvuE78gyJIUq0rVHjo7ujGeBFSEY007bykovDpCj3qUtHz4ZClIgk3YpHs9ZuWqSiQcdc2ZIBsJ7SGTJlw2nVQVK0rVHhom9HlVCSnydn+pmUqCmQgKCiRKRPCdYWqdYUKD2F0Z8tUFMiAbZTIlAnhukLVukKFhzC6s2UqCmTANkpkyoRwXaFqXaHCQxjd2TIVBTJgGyUyZUK4rlC1rlDhIYzubJmKAhmZbQY1ALKEyf2MO/1Dr8cjL4SxU3+2qkyZcEmwIpu5BVb8z95NWOsKFR6aP7rmY4qpKJCR2WZQA8C1ZYfDu6fDy/lSmsb24AUsxurPVpUpEw5dd30CFJ3mXCRGCtYim/GGDRPWukKFh6ZHN5TNc7kij5bULSKmOJmKAhmZbTKRN3j0Wc+HUJoWHmWfmKo/W1WmTDgMViiCHFWtK1R4aHp007L54/EdDRKnGf+o9ZhiKgpkZLbJxDVkBzKD++lL09wZjMH6s1VlyoT3XOedRhvGiyBrXaHCQ3dGN5TNv6fhPL0dn57jJy2IKaaiQMa0bWaLbeP8NngIGpUpE67kukwdmLDWFSo8ND26NCqUY7KdJbIQU0xFgYxtggJ0V6ZMCNcVqtYVKjyE0Z0tU1EgA7ZRIlMmhOsKVesKFR7C6M6WqSiQAdsokSkTwnWFqnWFCg9hdGfLVBTIgG2UyJQJ4bpC1bpChYcwurNlKgpkZLbJagCmNHozzbjTfLFarUyZ8JHBqmun1bpChYcwurNlKgpkZLbJagBisaHf4AJDWUrrbqZ58o+mOw9HtgqvdkEBbI1MmXDouvQEKNjJ+yS6zte6Bk+6oNS302pdocJDGN3ZMhUFMjLbZJKqMtp4kw3+KUsxyS1vUnKU3r/V7YwLNa0Xq9XKlAmHweqqCDLYiUJQLGu9FBhZKrWudYUKD2F0Z8tUFMjIbJOJxt0t5Q8badbhKrThTrIHGYZPdGwXq9XKlAnvui6EGjJYFqzYRc517ry5b6fVukKFhzC6s2UqCmRM22YlsYXYY/l+yzJlws1c17rTal2hwkMY3dkyFQUyNrMNNC1TJoTrClXrChUewujOlqkokAHbKJEpE8J1hap1hQoPYXRny1QUyIBtlMiUCeG6QtW6QoWHMLqzZSoKZMA2SmTKhHBdoWpdocJDGN3ZMhUFMjLbZDUAUW49y2U7r2/l+4+47fTI8TJYaEymTDg/WEnZCa/1RcnjGCo8NH90kzjCGoaP3offVBTIyGyT1wCwMfjWVjTivFYlLNQ+JPWtUmfGKyqdK8KRL74M9nx5cWhCpkw4dF16AkQG47VRuM9nH6loOLqSS3z44H9KWIlxJJS+ZlX0JobfVBTIyGyT6UxDTHHBeSDUDNE2e8bXopFVrurM5NHLun/2GFQgUyYcBivc53NUta5Q4aE7o8ujRWnGl7KefVhxVfQ8eEnpa4wycUQ7H35TUSAjs00uOv/g8aURJ0tQWiJXuNHngjM+HZF44erM4olL8AZ7KQki0JRMmXDadbjPZ1StK1R46M7ohhQi4YO/viWGFRk8GkjeE1KRjzJGht9UFMiYtg20mUyZsCRYZTtLJGFNctjgoUZV6woVHtorpnQw/KaiQMZetoEymTIhXFeoWleo8BBGd7ZMRYEM2EaJTJkQritUrStUeAijO1umokAGbKNEpkwI1xWq1hUqPES/NJiN70R7SNvzCQBtL1MmhOsKVesKFR7C6M6WqSiQkdkmqwG4pfOJF9TlK/jtVaQ9UKZMuCBY2SqCrHWFCg+Nju6P/NFPvv7PN7KdUCZTUSAjs01WA3CrHM2vcZKbjFiuSHugTJlw6Lr0BOiW6wwWQda6QoWHstF1olQkD+b7oVSmokDGqG2iJOUMy9GuUpHlirQHypQJM9dlJ0A3XGexCLLWFSo8lI3uD33xF3//X48//k8fk2x02Q8NZSoKZGS2yeRSDv2U9fppORr95Al/4gDBO21WpD1Qpkw413XmiiBrXaHCQ+nofvybn/nWD/7mWz/46svpL90e/gYXrnunweABi0cWi85E/CWw3+M+ii3/ZHa/Iwff3ZnLVBTImA4KqyrEmny/TZky4V6ua85yta5Q4aF0dH/rHz/z8i+fJf3wVz7u9pyO7/hcgD9CfZHPXuUT1bARPntNPkuVKO8/qOUzDv9pLA8kHymf0p5laMs+md3zSPcnjdA5Q5mKAhl7BQUokykTwnWFqnWFCg+lo/szH376r//tyx/7+u/EPRS1j0cK05JgOM24y1t/3Ro+e6Wf7rNUusL1n8DKMfx095OeHi915fqDo3/ZJ7M7HhmPH5epKJCBoKBEpkwI1xWq1hUqPDQ9upw5Ti8HTi2UcuInrTFqX/a4z1J5g64qplIR/y1RjnHJYOqTWX+xstORnIpwVXQDajtQgh8SA/gGgwJ8l5XRQCoqFIdvju/5/vfn9Hva4843iv75zkSXV9v3SEpag0dT1Y53TzzENtBymTIhXFeoWleo8BBGd7ZMRYGMUdugHG17mTIhXFeoWleo8NDo6EIlMhUFMm4FBXkw3w+tJ1MmhOsKVesKFR4aHV2oRKaiQEZmm0E5GpcNHW8WAIwv8R/uefgCfdKSd/H7Rz92HtPCWoi75QQkUya85zrIq9YVKjw0OrrpHuiWTEWBjNQ2w3K0E68BoQ1eBjJc+n9rif9wD//d7rEL9Mfet+pduF20R1rhc61ksrSAIebghbUQd8sJSKZMOO06GjU3HNyl4bDbQsnjBRUemh7dEZ15okrvuG8YlBEd7bh7/dW6TEWBjNQ2w3I0isWywd+5IuGbJlhc+s9rFMkk9JNmXVy1OLqH3VW07L7iyCXv4o+nPEGej98rc13AEL/lKLwXZTV6OqUc+hmbzy94txYiad1NmTLhtOuuRoezu4yCBPfhiQJtjJ4P0Yvw6cJDz34ef+SjSx5VeGh6dJPGuxHlAaNTPOkdtzaaR9R/qxj3Wuw4P7TxxfuTqSiQkdpmWI7mbHN4ekeukAAhcZZccSkG4P20J6QEDt/0z2wPe6lg2b2frmVHLnkXcvvB5RX+zI2b4xoor8B7KDPF/e695Cn8RhRZamshOBXhqihh2nW+06gDKZr7E4KbJwrun/QzHWjpczFJwXnJrkfG48dV6woVHpoe3dB46p3LiNK0eQqdQv+U8fNdk3RcfKhbmYoCGaltqlW4xH+bpfyPe5dcxcdf3iJ7iFJstmcgUya847qaEwX5J/9M4lXdecmOR3K8nTxHqXWFCg9Nj25sPG/4EX12STvup/5yXcP5/HpoRyJORzIVBTLuBAVoK5ky4SNdh5LHBBUemh7dS+MHD3m5ES04fetPpqJAxiODArRApkwI1xWq1hUqPITRnS1TUSADtlEiUyaE6wpV6woVHsLozpapKJAB2yiRKRPCdYWqdYUKD2F0Z2tivM+nI0M/T+f3sk3/dztpI+5xG/Gxk3siP6CdzDb3y9HO/FdZ+Sjceg3AY1UbdJqm2nVWVesKFR7C6M7W6HifjgfKJZRQzmfOLZJZ6MfhcJSdvON89nv4QUlH9KQD7fFP9K+kmtQ2I+VoJ169ckQNwPqqDTpNc8d1Q1k9Aap1hQoPPWZ0rwd1ohj4+rlXDzWnifGWhONSESeZ0ylNRaTLHjlANvi/JlPRjRJXSkKoAVhdtUGnaaZdhxOgqFpXqPDQ9OjS4FFA4dAwOboyrsmg0jYPttjivSyxc093SSs8N75vo1oeBUIG8v9siNQ2o8WGqAHYRstN2BDTrsMJUFStK1R4aHp0R4uWh6M7GFQ/2Px1kJyr+Atg6EqIfkok8s+N79Ko0vGm7fSf3SONzTskik0ipyPZ/osM1wA8VnBdlAtNOAEi1bpChYcKYkpWtDwyuvTzelD9YPOXKXHiSZ/OR7rnpm/Uotx400+3YQppct4h0PYy5b1p14Ugk++/yMwJUK0rVHhoaUwZLVq2cbZLXZfiO9QG0t68Q6Dt1ajxzidZNnqSFTxuzajbmlxECtcVqtYVKjyE0Z2tON60cQt3QH9I0/IOgbZXcx67LDH1i3t4WQ+lpZJFpHBdoWpdocJDGN3ZysZ7dPhp5xD/WMtIK/IOgbZXo3bihCT1DHwJdKL/xyU8SEUPUK0rVHgIoztbs6MAPXGIf6wR5Be+dMXMEleTNQCPVXPOWUK166yq1hUqPITRna3x8ZaPvNPTOvlY/D70akP8Y/qQ3833w9j9NF9k4SX/KZFXqaAGYDVpNslyZBJcGijbvuEogpxQ2mklqPDQrNF9pgDhY81AEl/oIRn1OMwSUzjEhD1XhmhTo+N98l+g4LOPJKaiVDQKvcUQ/9iuyK/h+2GkHA01AFtJiR9WRVzPzZSfvuEogpyQ665yVHhoenRHC5if5J5O9KiMEz0qB8i2Gz/ekFGPhc3+oYJb6jak0fGmxJNdCBVeFZVD75vhH9gQeVPfD+MlrqgB2ES7jP6WiMEvxIajCHJC0lEVqPDQ9OjKqNBIXBUwywYlEhlISTa0kd66n/OKjHoyipx7XDByD7nDxAesbsb7zFdBnI8oAxGUhB6eiobwHB3gH1sHef28QypkuAbgsVp7oLdBDDtOfNRtZM1PxVEIJ0Ai113lqPDQ/dENoxhH90BpSVIRj6hPRXQM+2AkFckwy3NLbpR79e7KVTveG0O/3hD/2GLkpfIOgbbXA8d0A8SDI/iHx0gfle28Bypk5gRoukuHqPDQ9OiGDJTvv6+awub577KrasdbA/Q7D/GP1SDPyjsE2l7zhm9VxFPj+CPmIq+Q9wA0VG1Xq/AQRne2lk8tJVBDhvjHbiAH5B0Cba+7I7US4pFx/BElVC43lRfPewAaqm4UqGP9/3cFoztbtePdFtS6If4x2EaN0kFZAxn2EfzDy6hdbirvm/cANFTtAK3roUIwurP1qAnZENTkSNoVJSWucZv/RBz335Acc1UPcPWs27Ug1iQDsRQ3oKP4I9ahdrmp/D6XtqMI8pZqB27dYS4Eoztba09UzaS2GSlHO8nSlesaAFnIxGv36adPKuFRKSFMSjrCnw/TegDc6XVU5SakI2/hj9ic2uWm8qv6hqMIckK1Y7qbA1JWHd3CQW204HnHObw7qW2G5Whhdf51DcCJdvI4hlR0qf+4lHRc1QyERZiytDLs4X+GV4BGTEh7RvEPt4y0wjccRZATqh1uFeaYHl0ZP0kGs0aXQkbRoHoTyHY7Bc99TO95pLYZL3GVIeMNGVb+5xPlGB5o2uZigPPlURru0ZIOn4pCgJA9tMGvxiYJb2dZNBAZfoR6RFrnG44iyAnV2kCFaaZHd7SAuWZ0CwfVD21bBc99T/tpUtsMxX6QrJPtFEsUy8yNzpbIlAnvu254AkSBS4IVhx0frOgYOmAsFfVSBFnrChUeKogpNJZuo3p05UKnZFCbLHg2FQUypm0DbSZTJiwIVhyOsv331V0RZK0rVHhorZgyWth8rcugtnnmayoKZKxlG6hSpkwI1xWq1hUqPITRnS1TUSADtlEiUyaE6wpV6woVHsLozpapKJAB2yiRKRPCdYWqdYUKD2F0Z8tUFMjIbLNiiWt6cKc3OlsiUyasdp1V1bpChYcwurNlKgpkpLYZlqON1gDwwhZSZYkrJRj+gyI/kV+kyxudLZEpE067bkRWiyBrXaHCQwtGN+vu3iqW78pUFMhIbTNSjjZaAzCrxDVskJ3cE3lD3iI8pYV1/+vJlAnvuG7sBMhmEWStK1R4aHp0kwEYjO7p+Ynv0fvqzmppDHgVnB+nMDYtVyzflakokJHaZrzEdVgDMKvENWyQo/hFcKfXTKZMOO06FEFG1bpChYemRzcMAI1QMrohu8hQveMxuHzqEoehcFz9G7UoU1EgI7VNoYJDimXmRmdLZMqE064jg6EI0qnWFSo8dH90pWeT7vbjxAfQcNIYPz27y1vZ2U/F8l2ZigIZ07aBNpMpE67luu6KIGtdocJD06N7GYDBQ7m6q1i+K1NRIGOtoABVypQJ4bpC1bpChYcwurNlKgpkwDZKZMqEcF2hal2hwkMY3dkyFQUyYBslMmVCuK5Qta5Q4SGM7myZigIZmW0KSlxf+Y+FvPjllSs5uCQgXdxvrhLgUTJlwmrXWVWtK1R4CKM7W6aiQEZqm5FytJMsTLquATiGZZbn08vBlQT4R3kP/4nRUiXAo2TKhHdcN1Q84ylYmNDT+VCtK1R4aNbo0rkthYMsFvRWsXxXpqJARmqbYTlaWKx/VQNAwxp/in9koW3yqKlKgEfJlAmnXXejCJLOZl75oXASw2c5/sj0YN7ZzflQrStUeGh6dGXM/GmFDNidElcKGUXj58fbjaWcsLjXZ5c08/UtpqJARmqb8RJXGUHekFGmf9LgupQjeYWX+POI+0dDKjJTCfAomTLhtOtGT4DYNmQnMpvEJRdY2G+xxqjH86FaV6jw0PTojhcwT5W4Fo6fH8Wmv77FVBTISG0zFA26pJN8/03ZqwR4lEyZ8L7rQqYJpzjhVIY/H+Yq11jZGr95QXb6aOZTUfvnQ7WuUOGhgphCGSjO/8vo8gGDEle50CkZvx6+vsVUFMiYtg20mUyZsCBYUQzJ95eqo/OhWleo8NDDYkrBHwYv41c23splKgpkPMw20DKZMiFcV6haV6jwEEZ3tkxFgQzYRolMmRCuK1StK1R4CKM7W6aiQAZso0SmTAjXFarWFSo8hNGdLVNRICOzzUNKXN0qyiMvsPR/Jrw+xquPSoBHyZQJq11nVbWuUOEhjO5smYoCGalthuVoshw/rwG4W+LKf0o0UwnwKJky4bTrRlRf4trH+VCtK1R4aIPR7aOAeShTUSAjtc1IOdpYDQANdPzJNuA1llePslvMVAI8SqZMeMd1YydAtSWuZDk+oPHzoVpXqPDQ9OgmXT9/dHv9QhdTUSAjtc14ieugBoCG2KUcSTC81p/H3T/K+2ViW6kEeJRMmXDadTfu4lpb4trD+VCtK1R4aHp0Q9fT2CwZ3TgqhcPs3125TEWBjNQ2D5C9SoBHyZQJp10nDslPgPw5TXGJax/nQ7WuUOGh+6MrfZp0dPXoxmGTnSXDfPU7qJWpKJAxbRtoM5ky4bqu6+h8qNYVKjw0PbqXrh88VCQ3umXDtvS9NpepKJCxblCAimXKhHBdoWpdocJDGN3ZMhUFMmAbJTJlQriuULWuUOEhjO5smYoCGbCNEpkyIVxXqFpXqPAQRne2TEWBjMw2BSWub7K+6OXoltsONVqoIc/quB5guUyZsNp1VlXrChUewujOlqkokJHaZqQc7cSrUSRhcOYINQCyhuV8KSQ8hRqA05kP4CUtfPDVzoPs6bUeYLlMmfCO64aavM9nx+c3ta5Q4aFZo+vryO4uOHFDXjjSzX2hi6kokJHaZliOdrMGwD8lLcKI6yezGgC3Mz6L/+meS2boph5guUyZcNp1UydAY/f57Pj8ptYVKjw0PbpyfuoTTzK6dSWuFCyKRto7Q7Zb+EIXU1EgI7XNeImrDBZvyIDSPyVncO6hAU32x6zD6/tHd/pU1GM9wHKZMuG068KJyPUJUIg54pPsPp/sGXlub+c3ta5Q4aHp0UUB84RMRYGM1DZD0fhKzsj3z1HX9QDLZcqE910XYlE4p4mnMnxhlN3nk+NJp+c3ta5Q4aGCmEJJJU7yy+haK2AeylQUyJi2DbSZTJmwIFhxCMr2j6j385taV6jw0LoxpaMC5qFMRYGMdW0DFcuUCeG6QtW6QoWHMLqzZSoKZMA2SmTKhHBdoWpdocJDGN3ZMhUFMmAbJTJlQriuULWuUOEhjO5smYoCGZlt1i5xdWspj7zM0h/Gf1NMj3Q7W6sHWC5TJqx2nVXVukKFhzC6s2UqCmSkthmWo8nK+2ENAK9YoVwyo8SV/6DYYz3Acpky4bTrRjRZ4trx+U2tK1R4aMHojgxb0PXYXI1lP3XOpqJARmqbkXK0WzUA/inpMv24kDKrAXA747P6rAdYLlMmvOM6PtWQ6DE8ARorcSUL9Xp+U+sKFR6aHt1kPIajKwPm9yc+iGMjzx2e8NLPPuqcTUWBjNQ24yWugxoASR4zS1wlEHRYD7Bcpkw47brxE6CpEtduz29qXaHCQ9OjG8aDBiw9vaUNiggyHmH/xQdhbCgcuJwkAeXydDFBHLxCN/jfR5VMRYGM1Dbrqut6gOUyZcJp14kNKMhEP7jI4wIOeSMvce34/KbWFSo8dH90paOT3g+jS/+8nN7K2W70AT+FhpP3hFR0GTxxRg91zqaiQMa0baDNZMqED3Nd7+c3ta5Q4aHp0b2Mx+ChmeqoztlUFMh4WFCAlsmUCeG6QtW6QoWHMLqzZSoKZMA2SmTKhHBdoWpdocJDGN3ZMhUFMmAbJTJlQriuULWuUOEhjO5smYoCGZltCkpcX/36fl7MIistRfLX4Oxvga4S4GrRPx8WD8iPNy1TJqx2nVXVukKFhzC6s2UqCmSkthkpRzvx2pPjdQ0AL13xf/9z6/U5u5xPL4dkrX+sBMgW/YenhNqAe39ztiNTJrzjuqGsFkHWukKFh3YZ3cJBVV7nbCoKZKS2GZajhVX4VzUAcg+RV7d98kv/3YLJ57DWn5/ilu/z8fxSvE0vKIdd1lXeNp45mTLhtOtGT4BsFkHWukKFh6ZH9zJmDx1dDkYlg6q7ztlUFMhIbTNe4ipDwxsyfPRPcsKJUg4XAPCpTFz6L6koHnZ5InuJck+IAqSQiuil/BtBpkw47bpwHoMiyPZTUWkBM28sHN3CQXU/ldY5m4oCGalthqLRlNSS769QzaJ/yzJlwvuu8wHncgJkswiy1hUqPFQQU8KYPW505UKnZFBV1zmbigIZ07aBNpMpExYEKwoO+f75arYIstYVKjy0dUzpqM7ZVBTI2No20A2ZMiFcV6haV6jwEEZ3tkxFgQzYRolMmRCuK1StK1R4CKM7W6aiQAZso0SmTAjXFarWFSo8hNGdLVNRICOzzVolrukSf77n3s2/C4Yj91zcv4tMmbDadVZV6woVHsLozpapKJCR2mZYjnZZ2e/X+vOCfl664v8Q6Bbu8wF05ESJq1+2RA/5kgD+C6KseaF8o25x/y4yZcJp143IahFkrStUeOjO6Kb9WzYk/nw2PrH0We3JVBTISG0zUo4WV/ani/jrS1zl0cu6Srchr88LW7Qt7t9Fpkx4x3V8LiKxJTkBslkEWesKFR6aHt3LwLh12wVD4savj/u0TstUFMhIbTNe4jqoAZhR4iqPxlREr6B6cf8uMmXCadehCDKq1hUqPHQvprhO9N1aMiRh/GK/Fw6kf8eGZCoKZKS2WUWji/7pJCbbY16mTDjtOgosKIJ0qnWFCg/dG93LwBQOCW3w2IeBcWNfMJBX79uETEWBjGnbQJvJlAm3dl2zRZC1rlDhoUeN7mVImi1RrpWpKJCxdVCAbsiUCeG6QtW6QoWHMLqzZSoKZMA2SmTKhHBdoWpdocJDGN3ZMhUFMmAbJTJlQriuULWuUOEh+qXBbHwn2kPafrF+QYnr23SFh380W0t5VathpUigSqZMWO06q6p1hd1ABlonDQoj5WgnXpkieULWJvE62jsVHie32kVqANzTR4s8LBQJVMlsKkIR5ISQioAV0qAwUo7m1+i/Fld4XKWiySIPesiFiW6LBKpkNhWhCHJCSEXACmlQGC9xDSv7ZYWkSyqSS+if4xUe9JNTi9QG8s6QiuIrhFTUe5FAlcymIhRBTgipCFghDQpDcSbgVJHvXyQzRQJVMpuKhkpPXIwXQSIVAStMBwVoMyEVzRAnFXem0un5DVIRsAJSkRIhFUFDIRUBKyAoKBFSETQUUhGwAoKCEllLRaAQ32VlIBWBVhGvXwLiZiWuhZUfdu73Wht0ABgCD4FWSVNR4V1cH1Liyn86Lqn88JUist31/V6RisBy4CHQKmkqKryLq2w8Ly5xLaz8cD/7v98rUhFYDjwEWiVNRYV3cXWFGgtLXOVCp6Tyw8r9XpGKwHLgIdAqaSraSM3ex2xVIRWB5cBDoFV2SEXQmJCKwHLgIdAqSEVKhFQElgMPgVZBKlIipCKwHHgItApSkRIhFYHlwEOgVbJUVFbi6iuNJlcfXN3KrOwppoVUBJYDD4FWSVNR7V1cj1xnSgf4NCMHuFXa/N3+vPItuZVZyVP8fpNCKgLLgYdAq6SpqPgurkle8ZWtVzWw9Kj7GetP/T8nnxKLZN1bWxNSEVgOPARaJU1FhXdxpe2D/xYft99Vtl5VsLqflwLV092nXPbHdzclpCKwHHgItEqaioYK2SLff181tzKDSEhFYDnwEGiV6VQEbSakIrAceAi0ClKREiEVgeXAQ6BVkIqUCKkILAceAq2CVKRESEVgOfAQaJUsFT24xLWmstXODVtHhVQElgMPgVZJU1HtXVzvlrjKKu3iylYzN2wdFVIRWA48BFolTUXFd3FNEsyNetX0Z3FlKyUezjTd37B1VEhFYDnwEGiVNBUV3sWVtktLXOsqW63csHVUSEVgOfAQaJU0FT1SM7751HY9LFIRWA48BFplrVQEVQqpCCwHHgKtglSkREhFYDnwEGgVpCIlQioCy4GHQKsgFSkRUhFYDjwEWiVLRUUlrkeu9eGCU78Iu1bXN3hd+mqdCKkILAceAq2SpqLiu7i+40XV59fD4UUqT10Vqt9wT4kbyXMvNa28Uu5yg9dFrxZ/+daFVASWAw+BVklTUfldXLns1BUMcWLw99Y7Swnq2e/hZw2feyk5CvWq8oLzX839nh0IqQgsBx4CrZKmosK7uLrLl4Pb5v1p8iBd9gyee52K/FXRoleLv2rrQioCy4GHQKukqWioEPfz/SW6+dxZN3hd8ps0IaQisBx4CLTKdCqCNhNSEVgOPARaBalIiZCKwHLgIdAqSEVKhFQElgMPgVZBKlIipCKwHHgItEqWirYrcV32Iv3d8hWpCCwHHgKtkqai4ru4PqDE9bSwsrW7W74iFYHlwEOgVdJUVH4XV9q5sMRVXmdJZSsfJr8hL/Lu4JavSEVgOfAQaJU0FRXexfUhJa78c1Fla2+3fEUqAsuBh0CrpKnosQq5Id//vuYGrzdfpLtbviIVgeXAQ6BV1ktFUJWQisBy4CHQKkhFSoRUBJYDD4FWQSpSIqQisBx4CLQKUpESIRWB5cBDoFWyVJSXuKaVpFK4c+SaHr8zFJNmkgrW+MTSZ1kXUhFYDjwEWiVNRcMS1+Ph3dGX/shiNs4xrwcuceXsQkmFl7fJ/liLes5v0lr0rPg7mBVSEVgOPARaJU1FwxJXqc7xpaN8uUOp5fDCGSXUBskG5RuWqyqlnb7ux5f1FD3LvZ1lIRWB5cBDoFXSVDRW4soFra50VL5lxyUVqXK9SipXtag+FclVkTz3/rPiO5oVUhFYDjwEWiVNRUvESYWzTqhgLStBvTxr8JA1IRWB5cBDoFUelYqghUIqAsuBh0CrIBUpEVIRWA48BFqFIiBQgh8SAOYCDwEAANgZpCIAAAA7g1QEAABgZ5CKAAAA7AxSEQAAgJ1BKgIAALAzSEUAAAB2BqkIAADAziAVAQAA2BmkIgAAADuDVAQAAGBnkIoAAADsDFIRAACAnUEqAgAAsDNIRQAAAHYGqQgAAMDOIBUBAADYGaQiAAAAO4NUBAAAYGeQigAAAOwMUhEAAICdQSoCAACwM0hFAAAAdgapCAAAwM4gFQEAANgZpCIAAAC78v79/wdezZdMhaT45gAAAABJRU5ErkJggg==;" vertex="1" parent="1">
          <mxGeometry x="220" y="-980" width="950" height="864.88" as="geometry" />
        </mxCell>
        <mxCell id="bQvXC9ChqrMoX_zcABg8-2" value="" style="shape=image;verticalLabelPosition=bottom;labelBackgroundColor=default;verticalAlign=top;aspect=fixed;imageAspect=0;image=data:image/png,iVBORw0KGgoAAAANSUhEUgAAAVQAAAByCAIAAACDcr59AAAAAXNSR0IArs4c6QAAAARnQU1BAACxjwv8YQUAAAAJcEhZcwAADsMAAA7DAcdvqGQAABFpSURBVHhe7Z2xrt1GDobvQ8WA3abPA6QyDNjnERbYZrdxkSr3FdKmSef7FGkCpEqaNK6CLRYBHDiJN0sOORyKM9IZSSONjg4/EOdyKGnIkebX6J44Vw/ffPPNfxvRsCvHcbaGxf93C6Ar9m6H9+/fs3cf9BrvveWtoXttLn4X/x64+HNc/J1x8e+Diz/Hxd8ZF/8+uPhzXPyKnx9fvHj8mRuBPNIaF/8M6HIsuig3LP6ny0Pg8sSBUWaemTsQP5wROnnM5WnsHOXxRfNsFqULYCsGNq5iP8oTLow4jXH6Ai26KKN5paugsesCm8nEeIXJpFBW9WhlOHWnqKa20alXl2KaXcRfWWW+Z4sRTlO+AMT22fdnXISXi4x2bOAUX3RarogfnG1usFfykj+hf9xafUfSw6kYzfXaJqjcbZIe4tfnSN/eCvHN19xq8WNNcRaE1eAJtoJguEzeZEZ0PKYmHAyLhkFNPXwd0fFqpvLCpz5d2NTnENuDMz8nd5XApGlTh6cRIlxw9mmr7oR8jthexqgWP5bBMeybMsUU4ab9GB+b0oYryZGOj/0y18y5w6EmLV0fwiqqxR8uAZVFDmyV88slZyMi/0hMTzgeADX1EHREx6sZz/tiuOaXzqHE1MZK6gRG/ZZSFwdLO+pN5E8flTFaGyslIB2alDqX6EVTca76rfyhaEW8Kej982NbM0P88XTyj8FWiA2WhsC1c9+DK2IgR3/qHfJ4NeMTPSxbOhGfPYLO4fDMz2GG+Iup9Z56B3MeyJeI3jROXW0MhCltahdz0X7EtRq6iv9qPN+nNXPET3MkzsDBVgjSLwLbVrueqxMO3MtjaOoBkq8/KV7NdF74ybIe6Xxw5udQJTBqFlNLEBwRU76/iehN48wSP56Cq+IH3xQZ3DE6/s6PoxlczBTnA/RYNmKW+ENBqjjZyiVnIzoeFRMuzjIcLI8GXYrIZ4jXcy0vZ6DshXOI2+OZn0PleEPGUmrZUx3CteKP0vnhdmEQhjnih9qgQ/jURYQUen/l4/ZCPwMO8oVfnG0Ux6sQYuob6I2YJ34d0sXLlTYjouCRqJpwcY7JaPhC0G5m5zoqRYgtyQqkrYuyTuTlBIDqNk+t0sZZmaal7D44P2rn2CpTURsAfWBnPMOMq4oh8iIn2F78x2ZK/DlwauWEqit9Q8wbbzvW5tVnfg69xltD99pc/DMuAMzAuMS7+OexMu/gzM/BxT+Bi/+4k2MLblT8i3HxT+Did/HvgYs/x8XfGRf/Prj4cw4hfsdx7pB7X/md0/Pv1XBHp8PF75wcVvAKuKPT4eJ3To4IWDtjTUD7BEROiYvfOTlawOTIZ94EtE9A5JQUxP/hw4fff//906dP3K5mSvy3+U9inBMgAhYZS1McaQLaJyBySsrif/369a+//vrXX39xqI4k/lzqxxf/RIWnvHPBoPQ/PldjDFuY9uPWvdM/2xtE8iKW/dO+hAhYO2NNQPsERE5JWfyff/75Av2fduW/6eLHwEGp//kjjhFFlwaL/59I46Hrk0n/Yl9HMH1Uu46vQAScO8YHjE9w+3SMih/48ssvf/zxxz/++IM3XKOw8uO1jLS4kBtCNYfP8EeRELMwHXwE86Dxyj+ap2b+P9BwvB2DDkP6PEJuo9Ss4BVwR6djSvzAF198Afr/+PEjb5skEz9cyHglm8+h5lCF8Kn/n0mq+fjFLyAOitUmw7cjVWpsgkoBrl355ZwDhWKWwApeAXd0Oq6IHwD9w/N/zfpvxa8vXqMLuSETNR+/+AWY0elP2oHZQPz8IBUfpfIIUSjGacmWK7++eMe/kBM1H7/4BahBgct/umuw8gaajz3vUCLg6BtN89TOkCnxz1I+YMWvZhJe1oNfSKpZTzjxsfqmq98R0CPFK8WrLo51GE+tJgzyBnQEE8ZTne/pNGVU/K9fv/7ll1/+/PNPjlaQiZ8nFc6rij8q1BmqWU845dM4Dj6CeRhpwQhjE7aEi4a0v+eZvMAwErLrP4V8utvuYSiLf+1/53cc5/CUxb9A+YCL33FuiIL4F+Pid5wbgsX/vgUufse5IRqv/P/57dNtGZRtIue2XuPtmPcf//zXSjN9trLuc8/F7+LfwzrmNUpeYKbPVtZ97rn4Xfx7WMe8JOAPH/+nnbGm8clMn62s+9xz8bv497COeUnAIGmtc1G4aRqfzPTZyrrPPRe/i38P65iXBCwiN2o3TeOTmT5bWfe5t5n4f/j6s2dffy/NoxqUzf5EwTcylhpL4/3uzYMMCgb48Pztd/Cpef72B9rEfPbVT3zsfEt59zXISwIeU7tpGp/M9NnKep0TMRd/xQU4pfh/+/Ttq4eX37GDwi4M891LugWQ/+qd2jTPqs7zBgZ5ScBG7eQYn5raJzN9trJe50RsI/H/9PaZLBfvwKdJxpMJVphnb17GHXhTWmFktu1hUDb7NPXD59tXXEqoTY9l+dJ3EEvjBZMhP7z5VpqyFQ2uV9i02gZ5dzTIKxpebKbPVtbrnIjtsvLDEyYtGuTgbIsKhwhOLzXJClNwQ4Oy2ae8WFu8H8mD8b4lbWppvMFwzX/2PLv/BsKQYQdkxZpPZvLuZpDXKHmBmT5bWa9zIrbPYz9rm58z7ab8t802q02NQdnsU1W6NvEHBd+2pfGSFcebG96jV90CbN69rFfeGute206/8wfZx+V9sCmKv5O6oGz2qaqiGIZjuWlL4yUrjrds6ulsvtm8e1mvvDXWvbYtxa/nCjbj78x6kvGjNUys+LC9r0HZ7FNVujbxsfj9HkY2tTResuJ4xSAiq32+dY7ZvHtZr7w11r22zcQff12MX5L99PZZ/D0ftSREUengikk216Bs9mly6ymu/OFYbtjSeMnMeMPpj8D1Sl92rvwi1ubdy3rlrbHutW0o/oHJl2dgesL1NijbRM5tvcZ7b3lrrHttO4mfv+qjpou/n/Ua773lrbHute218h/VoGwTObf1Gu+95a2x7rWx+PnPcawDuoLxOI5zEzRe+dlznMPAr91ZAXd0Olz8zslhBa+AOzodLn7n5IiAtTPWBLRPQOSUuPidk6MFTI585k1A+wRETomLvxH5i2iqCO+nWfZOmg1epXVKRMAiY2mKI01A+wRETomLvxGLxI/SHyj/6ZI6ia86S3tkEfWOrdnoY7EO/YYsImwOdydicaq+iIC1M9YEtE9A5JS4+BuxRPwD7bLKYgC2kcTlBpFHBu58pEOuozAEXeHTZXGmroiAc8f4gPEJbp+ObcQfptGjXqf0xCIfPy+XMOEvT9CIe/YCS5D8rAsuCwnVh8rDuGhP2I2hV1wPhnz1cK0sIuwQIlwAwsE8Ytz50MHwST0X+lJJbxZW8Aq4o9OxmfhFyTTF9cRKcy6EYAdxZJ8epJmez3mK6HGFRtpLb8oHUjicTwM3iBTSFZCfR6y7ADj6BdyDqYNQXiJeE2RFiu6wglfAHZ2ODVd+ntfkT0RypxdRSOk3bygpTH5E10ybdLXFTROHZx0gKaQ1TX4eCRR6mYM+fKIrSAhIfucUuPg1UEGQmdQjKzjVpis01eab4HPi8KwDJIVyeY8IXt8TFqC7KhSkWZnJORw7ij9OHXQpQvvkTj+ghMslrvuqHnCzpRtjSQ16E/kqgrvaw4OadBNQO4jU8Njg5RHyTR/z0MfnfUFERrg2k3M49hJ/+Bkefx/waz6IyD650xGsUuY76q1cM4E7M/SFH2+Ku105fKh+1ZmIXbWQPIIHpXIXoEvSFSBUMTdCk/ZzTsI24nfqWKvdwd3Dcebh4u9LWFqX6R+fA1z6znJc/I5zp7D4+c9xrMPF7zg3ROOV3/ydoOMblG0i57Ze4+2Y17x+Z4GZPltZ97nn4nfx72Ed8xolLzDTZyvrPvdc/C7+PaxjXhKwvHVXXsVbbBqfzPTZyrrPPRe/i38P65iXBAyS1joXhZum8clMn62s+9xz8Te6AAtfRhBeibPsBZj48szZb9FpNt6Z1jEvCVhEbtRumsYnM322sl7nROww4u/0Jg8o20QW2qL6v//q+VD5716mTvD9hQF5TWAW0e9BqrM0XvMOpcK7ksOdBTcxa95W1uw8zzTISwIeU7tpGp/M9NnKep0TMRd/R/GHNxTHpRtvBEDsRN5xJDeIPEIPDrNecKrHKx2Cg8IuDEFX+O7lsieUYM3O80yDvCRgo3ZyjE9N7ZOZPltZr3Mito34wzR6iy+3DGtUWj1iU6856KcXQvIs5Naql0PWGJTNPibVayz6LEgkLoN6XGkpfnj5lWwKTVEpUzo8X7f5bFDPsRgO5hH0IcWsBTmNF4z6gU/qWXUbTSVdZ4O8OxrkFQ0vNtNnK+t1TsQ2E3965TYqZLBk6UkmfgqWZ/lGBmWLn14oCLI0qxxFBuMarrp6U67qwuEl3RZPAvt5JPh5qZOmxwuGa/6z51xSKC8RKoEdkDkpimby7maQ1yh5gZk+W1mvcyK24crPs9/4MGuLW7UT5ltEZvwmBmWnZhTSt6/iE4cuBsorVp43xZ84vJX4h31etcF4wfThE13BmQFW3AJs3r2sV94a617bIcUvW7c3KFs1YTEPMpNK5PcOqkrXZurMN8HnxOH14ufgiODXrfyDroblZabvPrPN5t3LeuWtse61bS9+nDT8rJse++M0wgjtmYJp/x0MytZNqOflqzesSTUKrnMwruyxXzaRf+XwoFvdBFM7yO8gfNJKEfKX/84Plpctmygid5Z86xyzefeyXnlrrHttO4g/NMOTrzzD4/QNfAZKU9MdIzCV0/7p2++NDMoeRDB1Wt/4N16pc3Rc/IUfb4q7XTkcb3Px0UCdEyCIHG+CAaknj6z6th9Nl6SGE4Da0hexK798tXn3sl55a6x7bduI/3YMyjaRPU2v4Ussf3a4Zr3Ge295a6x7bS7+vhcgLK3L9I9fws1ejXuN997y1lj32lz8x50cW1iv8d5b3hrrXhuLn/8cxzqgKxiP4zg3QeOVnz3HOQz82p0VcEenw8XvnBxW8Aq4o9Ph4ndOjghYO2NNQPsERE6Ji985OVrA5Mhn3gS0T0DklLj4G6FffTMD/7v9myMCFhlLUxxpAtonIHJKziX+hQpswaLUKH1SfrgJELGbitd1rXljjz4Ws794fEo1BMLmQmE3hghYO2NNQPsERE6Ji78RS1Ir/T1djKDhR7otBC+PDNz5SIecsjAE3sL+4kxdEQHnjvEB4xPcPh3biR/mDYNzBmdpaoV5drmE0OWJt/FuxTgdgi0gTEfc8/FxsBSaPWaCR3Mq0UXq0SalPdUYw4s6h/VcO1wrKxF2+pkLSIFYkooYdz50MHxSz4W+VNKbhRW8Au7odGwkfplQBIqEmrwBf4SJhluiwxOxFMcfsT+ao7hnDPE+xek7g5RDZWMoopPGoTDFeoTC4SPFclRXQH4ese4C4OgXcLulDkJ5iVAc7ICsSNEdVvAKuKPTsY34zbzWTZxhYVGniHEm4mESRlQP+c4UXEAU0lN8Qz92yBmDGIpJieKmicOzDgIoxhDTmiY/jwRKvcxAHz7RFSQEJL9zCm5H/NQUdCQ/aiFwfJCZ9CYrOPWs+ze58k3wOXF41oFSPvlG3iOCV+El6K6ygoaszOQcjn6P/TTPjDMWVz0wsoP2wVk3QaGDyyWu+yoFdgy+ithkehP5KoK72sOHYuc9qIGI1HBL8PII+YPD5qKPz/uCiIxwbSbncGz2hR/MlfC0C+D8Sc0wm2QmGWcsTg73MPUEjjcJ/nV1EZhF5jv3hh3CHcEkBVRJ9IWfqefK4bid26onZHi01JNH8LhU7gJ0SaYIPsvcWHNSnWOymfidCtZqN909HGc2Lv6+hKV1mf7xOcCl7yzHxe84dwqLn/8cxzpc/I5zQzzwT8dx7gwXv+PcKS5+x7lTXPyOc6e4+B3nTnHxO86d4uJ3nDvFxe84d4qL33Hukr///j8B+6Z5WJvXbQAAAABJRU5ErkJggg==;" vertex="1" parent="1">
          <mxGeometry x="50" y="10" width="507.02" height="170" as="geometry" />
        </mxCell>
        <mxCell id="bQvXC9ChqrMoX_zcABg8-4" value="" style="shape=image;verticalLabelPosition=bottom;labelBackgroundColor=default;verticalAlign=top;aspect=fixed;imageAspect=0;image=data:image/png,iVBORw0KGgoAAAANSUhEUgAAAfIAAAB9CAIAAADWYnY+AAAAAXNSR0IArs4c6QAAAARnQU1BAACxjwv8YQUAAAAJcEhZcwAADsMAAA7DAcdvqGQAABckSURBVHhe7Z29jhy30obnoiRASp37AhwtFtDOJRzgJMeJAkXaW3CqRJn2KpQIcCQlThwJX2B8gA3/HZ8iq1gsFtk9Pf0z3dPzPiiMitVssljd/TZ3ZGsPP/zwwy+//PLPHNBQ4m2Vn3/+WbzbYK313tq8gEDx16KuPGR9z9yavEJZVgTFX4u68pD1PXNr8gplWREUfy3qykPW98ytySuUZUVQ/LWoK78lWf/y+PLl4xdpROrING7tzpu0Xi7+qEuwVp1nmPfpeIgcnyTQydw357Vzaw/Xdqgrv7ys093PD4pwfOp6Hur43E9O687z+RG7eVrbT1pccV5j/+UYdQk659Whonqels4z6Vmv0jsppTV4tbqcUSXaH0OK3/lsoYYTqCt/EVkfeMHqnnNf7Padx+zxxuqW1+NRV9u1cI6PKkv3vHEocpZ5dZ6Yl/0eZQ9HB79r7HIWWc2Vcbr4PaCGE6grv4as2+fBvsMb8Zl3zu07jynyDBmk5zvu4J7oKEmhJCWHXP7bo+9Jo2XxMrhpl28jNj6Yvnnp05YrNG0NQ7uo/DlzD1IWbfqp408QTLzg4vNROwj7EvGj3CyDih8IdZZYKB6XMtUw7jce089y+cCtV7ePuvIrfgmjuuKek3DVs27OejXbdx7j5tLs2KGjemNJglX+7G+J/idNFsBNuwQbsfHBdM/7stynt2qoMXNwIMOUhcdtTd1cLHe0h9jvP+v26Cy+PPgRrZirqS2mPv6W82+G26Gu/Hq79Xj9DEnubf/63Gm07zzGzyX3kfxRHKVYsZ2LbPGmOyFz7NhP26GOD6b7CY87MTuRVI/hGpaVP4cT6xXiwM2pbU/bwdWBfY3YQzfMsOILFOa65nazmNyPQZE7qCu/qqyfjNd9ptG+85hqrvj0J20pjlKQv5aZM7clOPmkkXt8jE27QPbtJ8cH0z8v/SmC3TF4UflzGKQs3GxOrUFyVEXq/i5iD90wg4qv0OU9Kevku6sQXeCoK7/id+vhwhYPbo7LCfayzkL7zmOaeeqdZ49KglX+22PAk5Yer7BYWU1wOaKfMT6cU/PKDDx7o4bheKr8OQxcb5yxNbX2NKdIruGPVn2k3VjErTGg+AoVnypGn7bKsYa2v/HD8cY4IFBXfiN/ZZqUhePhiYsx899rzEL7zmPqPG3IpqrPsMufg1ti0JOWHi5djZSdu7nOwxgor6GlsxL56KhZe+aVCQgzbD21mTbdg/km1O5FfUzn1LpRBhSfoCKFaskj5FxTbaa+CqCmrvzysr4l2ndeF3RP6Z1knuEr4rz1zsfUeW3lz2Gt9QICxV+LuvKQ9U5IW9K2HLJ+HhPnLSp/DlCWFUHx16KuPGR9z6y13lubFxAo/lrUlYes75lbk1coy4qg+GtRVx6yvmduTV6hLCuC4q9FXfkg6wAAAK4XkfPEbe3Wwe75fjIyEABXC2Qd7ArR5gnIQABcLZB1sCtUmq3T1SSsz1AEgKsGsg52hZVmdvSzbhLWZygCwFXTkPVff/31t99++/vvv6U9mD5Zv87/nQdcHSrNKtDaVEebhPUZigBw1bRl/dWrV1+/fv3rr78kNIws67WIb03We/LZ5RuIFmX/0RKzxnhEmH/ddnT+X0eLSJ3EuP+9NKPSbJ2uJmF9hiLgEpib8DRndV6ILeQwjLasf/PNNyOUfSe79StKdThhUeZfS0prpD+Nlod/WGnmpdti8r/0YiNh+qTjNj4BlebacT7hfEbaYGlmuuKX43oS7pR14rvvvvvxxx//+OMPOXCKxm49PLeJTVWEM4yf8TdsBdxm8rpuuRPwevUfW+Fm/U9qSXw+igHj9HWE3ZmmFm2egAwEJkAXU54ivsHsxRU/dylbHT+u8Vnxs3xgCbqLBP7lAfo789wkcRDa3IS2/iIVGaTR84qVoU/WiW+//ZaU/ffff5djvVSyHsqdq7apYnA+8UpJhipxW0t1FtKiREd1+X6lRmdnwUxBbqiwnVRrTjSSGYNo8wRkIDALfEPZi6t+DlInue0o1r4BuXM4nI7LzVOeYTvYmzmfHqcMEyYn/Nns6SZKh2Js45yQdYKU/evXr0P27F7WbRW2VpGeDLeW6iy41dlP7iCY+3sWaArZ4qRNTh1hGsmAq8VdZXtx1a8d9pt3IPdxPV2EcB0kA8b8pOicnp51Zw5umyV3683SbISeDLeW6iyYRZErv+gu70MSs6+9HlAj5NgHePapwVqEK5uuJV9We3HVrx32Z5R1e4jQiHN6elq/7rZV+mT9LE0nvKwb1aCAE5CV4QztdVI/5DrrjnUL2JWG6yI75bDWMp5bs1DMG7GRMGEqdd0TXCnmUsoNFv6QCy0R8TiY7wPTsYQO8Dh6k4hfnmE7FLdXRI96p7un9clpJ7c5OmX91atXP/30059//inRAVSyLgISNGRrv7OKM2xevJT1pvKdil0pQStMTToSL1Fg/nvWzUuUkTh7/H3fi6UALk967rt/ZaDpFlr5Luy4Afi2sTeP+vlc+StTvbvsoTCNPaV2pF/Z0/a5HmVoy/rU/24dAADASrRlfYSmE5B1AMAc6HZf2f4WeUM0ZH00kHUAAFgdkfWf5wCyDgAAqzPzbv3//v/vLRsl6SL7trXWe2vzwshQ/LWMKu+ArO/Z1lrvrc0LI0Px1zKqvAOyvmdba723Ni+MDMVfy6jyDsj6nm2t9d7avDAyFH8to8o7Nibrn94+e/72owvOZ5SkiwRbeNIVrb3e5e3W5oWRofhrGVXecT2yPof4UpIuEmz0pHp0jtyWsLze9w8HzZCyPbx4/Z4+LS9ef+JDwrM3n+Xc861d5+XNz0urVu4/+MvETbNkKQIfkgjRDBJSw1yoMODD3XM5rFSV/Py67nP/kAZ/eMcTUcLplHf3h3D56gT8JfvQGFlmj5MW98DJKR7epaNDLBe/zPPufSOo1TPodFWq6muzCLbq2XH3fnzzQnpwn46symvaqnyRfLpDxGz+/dea8aWQig02qrwDsj5h0jlSWtTseum55duFHLmhffIf7vIN+uHOPPPnWrvOy5udNz7AWZje3Ue5tEvmpg2Sz6ecDOqhoONG9+1ZrnNtro82G8O+CIcaY3ZcsrpnY8xTU9itwADLxbeDkM86ZYN6qDl+iHdUVZvNc7sGTBZuidzh8+v71jghUs3e7pYi5NtXoBshB03/E6Odp+xUeccysh6zfE3vf30e+DWUbsH8zuTF5A4SMS9VPiW/9Mp3bFm7U0ZJ5ubUSc1Rev3SCNQhXM4QuXsvR6utynkJTzS/Xk6yS6SCRpi7c4IV817QzLxU/6rUbslakBxMFTgdjMYRkj/WU9uh7lyb66PN6Lx784L3jOF9/CYeaozZccmqnnRv02jyRk8dTk1x3v2Qi+9m52aVUp0kWzPV06PpIRfMRss5dUtoxF3Trm7SLArl82ez/U+M1urQa1R5x2Kynl84Zs2cbjgqkbCHCh2M/Ln1NJ6ZakD2Bxglmfw5JnUOffJ9Q6erEzqMT3iimfUGC7fa8xfVmyYSs6IOAd30jTU378UszxtWl2qu5orPTRuU61X2tMFYHsGcG2SRqmrPsn6XuT7aFCfeNuzrp8wdiZ3bl0yHEksvOb/A1hTpxLDLSf4QK4pfnJhmiZkKPJc0GL5eXamm0bjppzCHXFCt6xSZPWJGLq5pd7cwiKYarMqfzfbvHy2YUYwBRpV3LLhbb68hpEtJs9PqzL49SyP1ocB56xd/lkntUXJc08blLOaMhCdaXi+bJuZ8Z3RHEhPE3c97KWtfXzUX5CZ9xqsSsMWRUBl0Y2pEh+rpXJvr40ZLkl2IS9eY7pJ1jRwevSg6PVOEQKRrrg7rLr55eeRg3c0FfapFhxPntiwflZ+kwwLrUzTCjv103eIYAXso90z5+3jptyOxYrl5wqjyjovIuluDGKVOlNebffrUiujR2jnfKEnx7SDs0+e5k7qjXWdp8+KW18tmMzmR1Xk3ljM/76XMzFs+VGxuye7qkKNL7g+qmQjtbeV7jOpQp7k+2rQOz84R19+buWRlz7DvNoQvB0ZO0Wfth0ub9citufpSZesaTQ+5YLbylugax0TyNe3pRo6WvZm/6+/8ZqTu0GtUecfysh7lW37wT0fvZLX8A0sudygKnWhOl0g8K5WvGnCwUZLJn2NSPcrn6gjeGZ/wRDPrjaaJOV8jXdu9M83Peymz88YHLD9v6eu+/GCHDrReu9Kw5zUXtCfIVkTCVc4btyEFdH202TVRM968ZEXPsDnNtx9/OdAcqhkfbLn4xSDp5u+a0UaaqZ68amqnks/PNRl3PpFVuqb93fQOaedf9R8w6VlyQZV3XEDWYzO+uwIhHosVkbdZqEts8t896jeGJkLdOCgv8Hg0YCc6ZZRkbs4xqRzNf2Ua400nnhdI517AivWSaT7sS0IMPTnph9NAfpBGmJ/3UubmjcqeYPmrL4StiZwS/4OzZlDOZHy3zse4y9qXo/v7ityH6b5kbuRitKiSLnMyncLFB1sufpFnyqoIEt055EgSdHsudyhGSy9vf3rD7C3hH+pAxzU91a152+T8ybe5NUcTnzDXcZhR5R3LyPpWjZJ0kX3bWuu9tXlhZCj+WkaVd0DW92xrrffW5j1l+cfTxNk7su3bxop/EzVno8o7IOt7trXWe2vzwshQ/LWMKu8QWZdfhDENGkpGBQAAsBIz79bFA2Alvp+MDATA1QJZB7tCtHkCMhAAVwtkHewKlWbrdDUJ6zMUAeCqgayDXWGlmR39rJuE9RmKAHDVbFXWvzy+fPn4RRrbY2R6dNrhcHyS1lk8HQ+HLVdkK6g0q0BrUx1tEtZnKALAVbM9WWfF3KOsB1EvNP3pmAcJsh3RHlWEAqNrEl8o+WyTfzwijB5+O6g0W6erSVifoQgAVw1266MYk16hyiKmKUDHWLxDPHp1pHDPJSR8PFotj24YMScVXiS5dZ2oNNeO8wnnM9IG4GpZTNaDYDBJP4KshPbxSY5l2RK05/K79TCrKqRIaDOTx7Bn5p5B9Zjjox6Kze6F5NPpbLei2CFGVMM1WEeceyZ8po6aZynHGz/BVhBtnoAMBMDVspCsV6pEn6wgdEQdpyB8kvZ3R+cmp2iSFTSTJNlxGaaXPdSzkHy6LEsaTA7ZDNivI949jzSXDMDNRk6jJ9gKos0TkIEAuFqWkXXSC962CnGDzgrSdKRbFHyO69HlSAqWv+FuZhKP5GyZ5qGe06sBAjlkxZT9OhJpjDIMPZEd+8kdBDsvAOAqWUzWnV44WVGHPnWvqxH9jOHFoDmigPJEXZnEgETYJ+pD9NlzejVAIIdq4e6Q8tGqawYhl79E2uWXMACA5b6EKfVH9cI5RkfIzZtcE18OmuR4THv1rkxihGN5RfYQ+yYSuvrTY0lskzAdVK7DudGrI+y7MYZSnBmuDicTBi/jI8cHAGyGC/yVafmNROVEjYm9+L/U4Lh2WxSaxWh1OxM5WKwo7XZTPPonTg/Hc9sMpjJuWoE6Ek7K6Z6FS8bkUmUCALhuFpN1UDFBlSPFewEAANpA1i9J3BmPU/awd4eoAwBOA1kHAIBdIbIuvwhjGpB1AABYnZl36+63MW3NKEkX2bettd4V5/3Xv/8z0dyYsIF2aw/Xdowq74Cs79nWWu+K8zqNHmFuTNhAu7WHaztGlXdA1vdsa613xXlZmn/9/b/W6Wo6n82NCRtot/Zwbceo8g7I+p5trfWuOC9LM4m1VXDVbtd0PpsbEzbQbu3h2o5R5R2Q9VH26e2z528/uuBp+/z6+eFw/6GKD7D3D4fDi9efqnivzbbeM23FeVmaVb6djrum89ncmLCBttZFh1HlHZD1UTZK1j++eVFq+oe7PMiHO/k/PR/edUVI2c+cNK+XEj4cnr35nJtpqJBVIneYZrPV+UyjeVmau3TcNZ3P5saEDbS1LjqMKu+ArI+yMbJOMp232yKmaZB394e79ykepb+O8GafgwMtrzck/HD3PCWQ8g+D54WEF8ksyj5bnc80mpel2ek4O87npvXZ3JiwgbbWRYdR5R3LyLqISNwBHqISqQ6SI9tPEindmV7IKEnxcxpkJGfBN/vWKH8x59f31OSeun0+3L3RQ7Gp+iu0Tq/32lqTlIAJ1pHg0xRnyW6xXhqEcuA3RJ6l/GLHzDXF8ryXNZpX1Xm0uTFhA22tiw6jyjsWk3XVi/ClMClUls67+4eog/YriAsZJam+bodDhu77bo6EVejuuNwp20O1XjdObyly1lAj4uLXkejXqfZaXm+aS1bNzZyAmp13vNk6X9JoXqfRI8yNCRtoa110GFXesdxuXfWClCJI/Lt7/nx4R0dZ9c5RqFmMkszNJJGcWIhQSrzbJpzqFSsqm+r3nD6XrJdjnrS8Xpuk5tYYzc473oo6X9DWmhdGhuKvZVR5x+VkPezT3/MOPX798p737Bc1StI0+Vug9EMD5aw/YdSq5xSwPkSfPacPl3UJdkj55N06+eFCxC+RdvkljIvALmYo/lpGlXcsL+v6HcWnt3fPRdo+vnm4u38oBOUiRknaZhC4+wdR21L4qu129SWMHmL/xOmmDmqmw7C/Mg2+fzf0Wl5vkQypufxtraRq4meN32WuzhezteaFkaH4axlV3rHcd+uK/lBv9oa1xl3EKMkiEvLM3zmQkjLPSOspPafLZlFpt5vi0T9xerk1DnqaiPIdpTZgy+Ui5atlgOX1umRM/atMZjBf50vZWvPCyFD8tYwq77jAlzAbMkrSRS5pdt89xs5/F6613lubF0aG4q9lVHkHZP2SFrbbI5WdNN19Dz7A1lrvrc0LI0Px1zKqvGMZWd+qUZIusm9ba723Ni+MDMVfy6jyDpF1+UUY06ChZFQAAAArMfNuXTwAVuL7ychAAFwtkHWwK0SbJyADAXC1QNbBrlBptk5Xk7A+QxEArhrIOtgVVprZ0c+6SVifoQgAVw1kfRRfHl++fPwijeHQaYfD8UlaPTwdD4cxEwCVZhVobaqjTcL6DEUAuGog66MYJetB1EXTg2wneCCNJNWnwIzCHl8oeTyTfzwizDjhWqg0W6erSVifoQgAVw1kfRRjZN3qNPnFpl3bRvqNO52Q8PFotTy6YY68kPBqOXtZG0OluXacTzifkTYAV8sysh5V47HcfwYFEZKiBKEJ7eOTHDSCxiwmMmEK1UwR1VaGvAruGVSPOT4OXKA5nc7Oq1EZZ0wznsXdjDsZHkvnkaGLnAJzTrkOos0TkIEAuFoWk3XV6Eo6RMRCn3iAmuqEP/lwZEmVydOYCQWO2FXERu41dIH5lHIp1ENIK9eOxrfhiaTpZUhuljlFZpxyHUSbJyADAXC1LLhbF71QnxyRsihmNm4d2y2wmMokBXs68vTdGfIh9YnmoZ7TqwESlASFrZgav+OcMdgkybGf3EG4elkHAFxK1umTN6Y2wgHnaHNxaCaSsKTq1OrKUCPsE/Uh+uw5vRogweEOKZ9RY82w5PKXSLv8EgYAcEFZTxFyg5hoxDukNRfaMdKEx2Paq2sadYYplrOyh9g3kdDVn5725cmXoULX4KqAp4D4doBJFGOFCnMyYboyPtuMAICVuNyXMFFLAvJfZGifpiN9F5aZMFHW6s4MGZNV2u2mePRPnB6Op7YdSqbXszWf0CknNxGXTDuX+aYDAKzHMrIOWpyn00Z5AQBgOJD1SxJ3xkOUPezdIeoAgDFA1gEAYFeIrMsvwpgGZB0AAFbnIH8CAADYBZB1AADYFZB1AADYFZB1AADYFZB1AADYFZB1AADYFZB1AADYFZB1AADYFZB1AADYFZB1AADYFZB1AADYFZB1AADYFZB1AADYFZB1AADYFZB1AADYFZB1AADYFZB1AADYFZB1AADYFZB1AADYFZB1AADYFZB1AADYEf/88z/A9PVk9ClPTAAAAABJRU5ErkJggg==;" vertex="1" parent="1">
          <mxGeometry x="50" y="461" width="498" height="125" as="geometry" />
        </mxCell>
        <mxCell id="bQvXC9ChqrMoX_zcABg8-5" value="" style="shape=image;verticalLabelPosition=bottom;labelBackgroundColor=default;verticalAlign=top;aspect=fixed;imageAspect=0;image=data:image/png,iVBORw0KGgoAAAANSUhEUgAAAg0AAAClCAIAAABQqllpAAAAAXNSR0IArs4c6QAAAARnQU1BAACxjwv8YQUAAAAJcEhZcwAADsMAAA7DAcdvqGQAACE7SURBVHhe7Z0xj93IkcfnQ0nAKHXu2HA0GGBnvoEXcGInA5ySmwn8Ac7ARboF5EjzDS45K9FBkZRsshfc4uDzGVhj17v2VXdVVxerm3x8JB/78fH/Q+Gputjs7qomq8j3tKurP/3p/37/+9//+c9//scS0FCiXRzffPONaHulVQT2Ni8gEPxWVCOPOjEWXLh7y9fY8YYg+K2oRh51Yiy4cPeWr7HjDUHwW1GN/JnVic9Pr149fZZGpLQ0AhfurAjwPk7azVaRX2De5/uryP2zGHo5m+v8TMDt1opq5FepE3QP8O0i3D/33RWl/Wzun1r4vGPEBd/s9Vs3xiB7Pbyzk3azd14dKqbjw7n4SAb8VQYnpWWN9lbdmRSiy2NM8HvvNsRwBtXIr1UnRm5b2fNstrx+4TL7uC778/X9vfrfFwq2TwpU/7xxKFJOU50PzMv6QKkIR0cXL+vOSbzZGIeDPwBiOINq5BvVCXtX2EeDiv1cHtHrFy7TcTAsPaWH+ET5TEcpk4o3csg5vgWGbl1ylB3jpg2ItVj7aIbmpU8bwNC0UQ3tzl4cM/eoVKVNP3V8x2HiJSA6H7WDsC4WP8puGRX8QIiz2ELwOJQphvEB5im9beYDe4/uENXIt/3eSbOLu1vC3ud8eh57Wr9wGbdIdYsVOqrXpXhWOM76eTN864pL3LROWYu1j6Z/3lfdN4laVNVmDo5kXKricWtTV53ljvYQ68Nn7Y/e4EsOiWjEXExtMDWTWI6/GPZDNfJN3yfiLhpS/bD9y3MbUb9wGb9IuQzlj85RsnUeLyPbuGYP5E1W7KftUNpH058y4rOinUjiyXBUu3txDAf8FeLA1altT9vBxYF1tdhDO2Zc8AUyc1xzuxpM7scgyD1UI9+6Thy0l30aUb9wmWKRMXmk1NQ5Skb+JuosnDqKg7cuqfdPsWldZt1+sn00w/PSn1IBegbv7MUxjEpV3KxOrUZSNC2V/Z3FHtoxo4Kv0PYerBOku12IKnBUI9/294mwvZ3bN9vlBLu5balfuEzVQb1w7VHxrHB8C4y4ddP9GtwX/4LKFv2M9vEcmldm4NkrUQ3H014cw0h/44y1qbWnOUXWGv6oxUfaFSf2xojgKxR8ihh92ijHGNr+Rg/HK+OAQDXy5/M7dsovbA/3XbSZv0rTlvqFy5QOWpP1UVOAc5yN582oWzfdreqf7CB3c53HMTJfh5bOSuSjk2YdmFcmIMyw5dRm2nQ55+tZu3fiYzqn1k4ZEXyCghSiJTeVU020mXIXQEk18qvUiYugfuH2QZekXogmBWya4yKwHHPntXtxDK38BQSC34pq5FEnxnLUhUupKb04oE7MZea8nb04BqSqhiD4rahGHnViLLhwW0Vgb/MCAsFvRTXyqBNjwYW7t3yNHW8Igt+KauRRJ8aCC3dv+Ro73hAEvxXVyEudAAAAAAgpDga8TwDQy29nIwMBsGVQJwDoRZL9DGQgALYM6gQAvWiut0pfk7A6QxYAtg7qBAC92FzPin6WTcLqDFkA2Dr1OvHdd9/99a9//emnn6Q9mqE6cSn/uRnYD5rrNeNrUxVtElZnyALA1umtE1988cW33377448/imkcuU6UVeFi6sSAIzupheSm/R8QGa/jEWH5SNjR+T+y7ljKRUz7D7Ezmuut0tckrM6QBayBuQgPc1TnE3EOaxhNb5342c9+NqFU7P19Yg8+EsFN879SS17Tn6Y4hP/r2sLBsOHl/2uTtYTpU2Gw9hlori8VpxNOZ6QNTs1CO74em1rwUJ0gfvnLX378+PGHH36QA4eovE+EuzexrY3sg12Ln/GfVAy4h9vLcLQXjoD+j5O4Wf7/9sS+HJ0B4/SlhdWFppZkPwMZCMyANlPuK77A7OaKnrt0Wz0vlHxW/OzewgRdRQL/Yyr6z6a6SeIg9LQU2vovVckglZ7bzhUH6gTx85//nErF999/L8cGKepECHqO3SZCchB2JG60uKYZ8mJ8HCa5KYlZA+J9N4l7EcwUpIaY20l1F4jKYqYgyX4GMhBYBL6g7Oaqno3USS47stUvQO4cDqfjcvF0z7Ad7MWcT49ThgmTEv6s9nQTpUPRdv4crhMElYpvv/12zFuFrxM2FpuKyxADrl2Mj8M4f+0ndxDMDbMINIU8hKXHsNLCVBYDNovbZbu5qpcK69UrkPu4ns5CuA6yAsa8yzploGfZmY1nz4nfJ6oB2joDrl2Mj8MYN0mVf+s0PyklFo9GOaBaSLEZYfGpQSvCzqa95G21m6t6qbC+YJ2whwi1OGWgp9XLbmfMgTpxVJEgfJ0wuYMMLo1sFXbNbrPqwclFn6DPE+t72GJ5lg/ed+25tQideSPWEiZMwS97go1itlIusPCHbLRYRGNjvg5Mxy50gMfRi0T07hm2Q+fyiuhRr/T3tDop9cWdI0N14osvvvj666//9re/iXUERZ2QNBIyycX8W4PsWnXvk7uX4Wgv1neCfE5NOhJ3O7D8TeDmJbqWOPurp2ddxGbuQzBASiH9/2qs6RZa+SrsuQD4srEXj+r5XPkdW68ueyhMY08pFenX7Wn7bCpX9NaJuf/9BAAAgIugt05MKBIE6gQA4MzQFxJlEw/xZ0S9TkwGdQIAAC6MXCe+WQLUCQAAuDCWf5/4n7/8dJFC3jnL3qRVBBrO++WvfzNT3JiQkYLbrZVQ5EtQJ8YKeecse5NWEWg4r0v6E8SNCRkpuN1aCUW+BHVirJB3zrI3aRWBhvNyrv/u+79bpa/pdBY3JmSk4HZrJRT5EtSJsULeOcvepFUEGs7LuZ6yvy0JWgxc0+ksbkzISMHt1koo8iUr1okPjy9ePr53xpEy59yFhLxzlr1Jqwg0nJdzvdYDVxhc0+ksbkzISMHt1koo8iWoE2OFvBN9YDFnsM7TSScCV1cvXn/KzeT1+9fX8jfUbYd5kuddV2hezvV9hcE1nc7ixoSMlFabDqHIl6BOjBXyzlkqsp868fLu5uX1wwdtBq9Dkcjuv7tZqFSMivwJhOblXO8KAytO56bVWdyYkJHSatMhFPmSk9UJSSXyaHnz1uRQUsQcE01o3r2RVVJyiXrZ53zqBC8mfj7cyiqDg3/59JD8XepR+qzER+Dt3dXtu9wMe5cqh+2mzamS511XaF5N95PFjQkZKa02HUKRLzllndCsQQmFsn/OJqkqpDzy5pbzbOwZUk/RZ6GMM0fIO9F1SVIe4rJ5eWewztOJj4BunAbE+272cYbkedcVmtcl/QnixoSMlFabDqHIl5z0fUKzRnzSfJuyiTxzMzGPpCfTN7f6hmHRGiOeNBHyTnRejF2S6mewztOJj4Aq9jN1jrL5OuEskNUEwW8lFPmSFnXCZxOSTw8vKaG8u+FDZZ/6WasKeSc6L8YuSfUzWOfpxEcg6u9fX9+85mbc5cv63slZIKsJgt9KKPIlq9QJ/lpGLJRN0tc1RkK6ub1LX+sXfc4g/5J3ovNi7JJUJ2WJJ+jzFB8BsYfN4q/dLu93bGeBrCYIfiuhyJec9PcJJabOTjJNaFpxGdb10XPbCXknOi/GLsnob+Iv27v4HVsP6c8z3b8XWz4NTJM877rSal4ICYLfSijyJet873QJQt45y96kVQT2Ni+EBMFvJRT5EtSJsULeOcvepFUE9jYvhATBbyUU+ZKT1YmLE/LOWfYmrSKwt3khJAh+K6HIl+Q6If/S0DxoKBkYAADARbD8+4RoAGyf385GBgJgy6BOANCLJPsZyEAAbBnUCQB60Vxvlb4mYXWGLABsHdQJAHqxuZ4V/SybhNUZsgCwdRrVic9Pr149fZbGzpjoO512dXX/LK2ZPN9fXe12A45Ac71mfG2qok3C6gxZANg6p6wTmhAHlB0yyXc6qVsknu/zICHrR7THCAsZJm9BWI0523gUjwiThz8fNNdbpa9JWJ0hCwBbZ5U6oailPLQfpvjeSeqSi5OBjnHuD/aojbF01GOhU1/d39viENUwYl4mzbn5UqG5vlScTjidkTYAW+Z0dSIkDSallNLS6bWZlBLWrAlWMnD2gx2h9qunp/AMzz1D0mTun/RQbMbDB06ns114Yodo0RKgxjEWpx4Jn6mj5lm6402f4FyQZD8DGQiALdP2e6d6/jp/8rqNBwJbyJ38FU9o5F72UJFaa6fXYpNNdgWsj7F49TjS7DIANyurnDzBuSDJfgYyEABbpmmdoE9+hha2k1NSAsy/Elhf2LV0JHvNVA8NnF4MEMgmm4tZH2OJVMYdh57Iiv3kDoKdFwCwVVrXCZ9ZtgItPeZfdUffC0rXnJvlIfocOL0YIJBNZd4fY4lMTuNmEFL5m7SL/N4JAECcuE5wHtJ84S2UWSZmquaQB/f36W1CHWQXSTcW43bEHmLdWEJXf3pM6LZJmA6a7cO5URtjYd2NOpbOmWETeXlh8K594vgAgHPilHVCUoj51bq0hNSS2FZSsRk3+RWcYNdcDjZupqfvZI/6gdPD8dw2g2kVMK3AGEsYJjtwFG55ZnXF2gAAm+e0dQIsxYyk3kOn9AAAQC+oE1shPqkvVSrC2wWqBABgFKgTAAAAhsh1Qv6loXmgTgAAwIWx/PuE+1f0LkbIO2fZm7SKQMN5v/z1b2aKGxMyUnC7tRKKfAnqxFgh75xlb9IqAg3ndUl/grgxISMFt1srociXoE6MFfLOWfYmrSLQcF7O9d99/3er9DWdzuLGhIwU3G6thCJfgjoxVsg7Z9mbtIpAw3k511P2tyVBi4FrOp3FjQkZKbjdWglFvgR1YqyQd84yUT48vnj5+N4ZD8unh5dXV7fvCvskeXt3dXX98KGwD8piEThSGs7LuV7rgSsMrul0FjcmZKS02nQIRb7kzOrEsTl0Ys6dIuSds0yUSWt+//paigSdLv+989WL15/i0Xc3Yrh7I/1HWKhUHLmMHIG4hjR7x6OwzkTuME8Wi/yRQvNyru8rDK7pdBY3JmSktNp0CEW+BHVirJB3zjJRpqyZsnx6/H97d/O2Y3xze8UWrSVjLPyCkoYaJTkCwYW7m5dpScmjMHh2LVSmRUrFYpE/UmhezvWuMLDidG5ancWNCRkprTYdQpEvOWmd0GfYmI8om0grPtLG5PJwK6aYsOJXK5GQX3L/mI8O9s/znkTIO9HDwuxzetDNc7RbLfc0oXhdOnLo9PqzP7lPnWUBwRLPep+WNGgJOk16VNw6EaBBaFX6iiOzpMphu2lzquR51xWaV9P9ZHFjQkZKq02HUORLTlcn3ONqSJQ5J1J+oSSSLDkP5sxSpLYD/U8u5J3q+ngeViKP50nYYlfrQlF1RKVyek9CF99NoEQfY4l6ufhByRFIYZc4cDMZtX9nrhliI7+m0Lwu6U8QNyZkpLTadAhFvuRkdcJlDdskndKHs7BuFX68Fg71P72Qd7mZMuyb2/QEbRdMS6qutmyqPnB6vU5QCuapyxowxhJ1t7BDkiNgl62rrYxm550uncivKK3mhZAg+K2EIl9yxnXCnu4sA91OJuSdadIrQsy/ugz9yoWXVF1t2dTOA6dX6gTlX/2Gp8z7YyxRn/0+QTqtjb9Ju8jvnZwFspog+K2EIl/S9HsnTSKqkyIZLfcXOdD/5ELe2WbIj7d3kr7N2oJ3pNvVlt87OUcOnN79eooOddPx1N+xgz7r9wmxh53i5cnijf2o8fvERX41aTUvhATBbyUU+ZJT/o4dMpoQklRuxsxuc43RKaMRIb+Y033qrPbnQycT8q5jCcvLJYqXEVZCxcOtVjoL6ek72aN+4HTzqB5ysSE6HjN1QNczxuIK+WHJEXDLM2XMLu+owQfER34taTUvhATBbyUU+ZJT1onLEvLOWdYU+x6wjNh3lHHSKgJ7mxdCguC3Eop8CerEWCHvnGVdCY//i5UKKhLut4QR0ioCe5sXQoLgtxKKfAnqxFgh75xlb9IqAnubF0KC4LcSinxJrhPyLw3Ng4aSgQEAAFwEy79PiAYAAOAiQJ0AAAAwBOoEAACAIVAnAAAADHF+deLz06tXT5+lcfZsa7UAAHA8m6oTZ5iUJ69Wj56hUwd5vr/SNdP6qfFMn5Z4OBwSNudiBfJauX/2G8dN43J2+rCRkBjmIcOA9/fdToSdM+IHIsx59898nBacCH74pRJxYGMsN5XorF6XMmoKc/gouuuUUbrG2mJ1umKpqhPc7Bj90IQ9w2K7hj7+1Oqe1iLfWbybLfYWmz+TKK4RH4qpce+AOjGPyas9Q1+OgRIBX39SMiruyBHRF7la20H+2Tsu+ONc5qY1hnPiKQeNTLDQTZ+s7izXucT10WZlWMIlR6Zny8qelTEPTWHHPgo7COm8DdbIlBYm2HuiSnCzem7fgAk6bjz6/HRfGydYitnr3ZKFdHOl+REY1//AaHa4iZysTsS1PoUnsHRXcHVLofWG3BaLMfgeoV0MuCpzV2vafA2QIWjBkp4A0+76c8+DsOC4bN1fvzotJRdAxT1v04BkY4rAYWOELRo226HsXOL6aDMq9IjJrTD8U2xUxuzZsqInG6i3mEdN0TP4Qdzs3HRGorRE2OyWeng0omfARB4yU57CFnW9b7qOpRMoHaBzhu1/YLRah+M5ZZ3Idcx4zosOR8USn1uoQ2qXXrkod0zLROFIllitU+iTr4QwdlLCn7Vzz4OwQCpuGgcpZhF1hUjL3zDBu8INtx3ctEbZwW5Pa4zhEcy5suX2LKv34fpoU5Q4Kuv6KXNHYuf6lulQQmp7B2tTcIfYRTofixkkkmaJKxV4Lmkw7EM62S81wU1nZKpGpe8UmT1iRo6LNtNJj4jpFtClBsz52didfXi0gEw+h9O+T9Q9CYumpbOSOtjOrNuz1FIeCsyNwnEsslp7lBTXtHY5i1nX02F0qU53dLd6k1S9c0Zu0mfcp4ANjpi6RjemWnSogc4lro8bze4DWwbGdFvWN3LoF7WBKYIhYkc4Cjd7mKT40o8oLUQ2+qUK3Dxwbo18lLTkYHmKWlixn9yBIUscI2AP5Z5p/YwdoTpaxxIjJvpE1qoTzhMhXVdlZ/rUuOjRUmmCnZ11+jx2te5o31naPEPs2g6sc4ErtSndu5RxLrv9IkVdHjYqxkKqfHUTm5XOJa6PNq3Cs7PF9feYLev2DMMYwhHtEI6Nn2IcbpC+kWtzkU1WGQnHR45GVI2Z7iXRN46xkNr7jZ9aSNGwc8uQT7IjDIzGlB2OZ5U6EetB9p6Iv/qIFvrloFM7qOZ0sYjGwxQDrsoSq9WjfK6O4JW2ng6iS3U6QxZdd3l0a5AHdh/Sl6XZq9CBbNZT3bqDRqZjCf3y8GXnEtdHm30TVe3qoj3a6UmNTiDc9S+wpbRPoDNICl/fjNJgyFQsNf3BSI/KudUBO4RztQN3Lk/pWNKeDndLLvIMxfojtv/waGa4OaxTJ9jlRLDHkEWkVzLob/vaw/7az8bQ8gOuyxKrlaPcX8NVVeJ5gXTuWaArZF2WyNCBs133RDou5hs5oZtlfI3HzS+8kWyUMxnfLVwf2uwOW8f2iXNE+r+iyX0YZzLn2BH8aHGVbuWETuHsE7CL0lV1jET/GqRBpIDac7lDZ7SUVP3pFfxInXGInj091C0eLz0yF4RdW3U00YnOEJM5WZ0AAABwEaBOALAt6LnSscwzI+hn7zFHnQAAADBErhPyLw3NA3UCAAAujOXfJ9y/oncxQt45y96kVQT2Ni+EBMFvJRT5EtSJsULeOcvepFUE9jYvhATBbyUU+RLUibFC3jnL3qRVBPY2L4QEwW8lFPkS1ImxQt45y96kVQT2Ni+EBMFvJRT5kq3ViQ+PL14+vnfGVYS8c5a9SasI7G1eCAmC30oo8iUr1olqilfjyAJwDnViYA3tlreC5Ai8vbtSN8nlq+uHt/RpuX74wIeEF68/ybnHS553XenO++5GXLl7k42QU0mrTYdQ5EvO5n1iZIZtl4jJO2epyE7qxF9+enN7dfNWlFADKo5TYo3VgvXbd+bQcTIq8ieQqr/vX19fzfAFMlJabTqEIl9ysjoRniX1yYtSxt2blErCncZQU4yfHl6KTZKOtFKiyZZ4lgy7qpB3ovOa4+fDrSwqJpGuF+bcy5AcARINAu8yN/VokLjpHctE6cy7oph5jS8VTyHLS6tNh1DkS074PqGPYOFrCnoEc5kldMjFw9x+5T1JljRU7ra2kHei8xroU1el38O0W94KkiMQJbxJvLzO+yIlMhKDQB0Cs5++3byriZnX1rzF6h9kQFptOoQiX3LK7524PIR8kb6tDukjJP38Ja8mVqvE9JIwtcR2W13IO9F5DdVVtVveCpIjwFKNQCl0GRDb/t4JdWJtabXpEIp8yUl/n/j08JLuqHc3lRyaqkWZYcuMYy3l0bWEvBOd11BdVbvlrSA5AizVCNRlVm71864lZl6z/ove4vORVpsOociXnPZ37Pevr29u7+TLer7BPjzeyHf3VEXi35Phu46Oyq0YSoh8myFCFvmhIvy20eguJe9ET47kfKF69uICJUeApRoBFbLoO0R59Bjx864ldl78jr2ytNp0CEW+5LR1opM3JVnwm0TA/T0Z/jq7+zt2+tWav7ugo1R1ZmScOULeic5rNiuve8GHLkhyBFhcBOIGJaiu51/1899HmCR+3rWkO69etxf7HHBW0mrTIRT5khPXiQsS8s5Z9iatIrC3eSEkCH4rociXoE6MFfLOWfYmrSKwt3khJAh+K6HIl6BOjBXyzln2Jq0isLd5ISQIfiuhyJfkOiH/0tA8aCgZGAAACr6cgQwBVmf59wnRANg+v52NDAQSk9M96kRDUCcA6EWS/QxkIJBAndgiqBMA9KK53ip9TcLqDFmABXVii6BOANCLzfWs6GfZJKzOkAVYUCe2yJbrxOenV6+ePksDgOXRXK8ZX5uqaJOwOkMWYOlJ93/83S+YX/3hGzE56MQfu8gBcHq2UyfKqtCqTgzMu5PS9Xx/pW6Sy9R4pk9LPBwOCctEhQe8f5ZmXEgY2oWdm844Cc31VulrElZnyAIstTrxzR9+9Yvf/TGqoV6I6qATKU0pqBNrgveJRTnDJZ0GStCcrqVkVBy3xeT53iT36YRZ7u91ptAk1q4TrDidcDojbZCo1AkqE/ktotOw0IkfE6gTK3OyOmHv0qTTn/x0KQnEtWO3J3pCtE+Mig6Yz1rqMfVIeCV5tYG44ryyJutaFQ2Cuu591lKyHHEWenXhqcIET2kZdnZdm1/S0Uiyn4EMBBKVOvHH39nKQIWi+kJBJ34VQZ1YnxXrBH2mxBEfL00eyR36U4sMSGelPmJZnXK1+ujcakktCE7T473uhZTISAxC2Cqid0ePR8IbrxzdBf2UTmaDrHESkuxnIAOBRFkn3BtE3wsFnfj4+Ig60YQ13yc4b6S0QcaYRhLpzuejJXy0MuzqDKyk1ZKaUI1ASXfbZ5FmyUOyxc1eNYLzYM77BOpEK1b93imS7vHyNh6+sflo77ArMrCSVktqQjUCdeIbgOgzsHHmAdniZq8awXlQrRP2p+tu1cigTjTklHUipYagxvv2Xm5bvoNDwegkj+EbW47SWdJJho0HV4VXYlereljTEglxE1QjoJBFI1EenUZ1lmDJVwXbwiYsNSlYlEqdCK8Q5u871csE6kRLTlYn+HaNpL+iwm8SAbl/tQdBpuEbW4+mYezffFkVXoldrdF5dU3WtTYuAnFTEhwgaSwWDzsjo5Zyts6SdlO8z55aneBKwdT/UiyBOtGQE9YJAABw1OvECFAnGnK2dSK/fCQWeiYFALQDdWKL4H0CALAeqBNbJNcJ+ZeG5oE6AQAYAHViiyz/PuH+Fb2LEfLOWfYmrSLQcN4vf/2bmeLGhMypEw//9M//8q//9u//8Z9f/9ef/vt/f3AjQxYRCXcX1ImxQt45y96kVQQazuuS/gRxY0Io3U8GdWIFocu+BHVirJB3zrI3aRWBhvNyrv/u+79bpa/pdBY3JsQJpXtK+pT6qQBQGVB5fHy0TRXUiVMLXfYlqBNjhbxzlr1Jqwg0nJdzPWV/WxK0GLim01ncmBAntk5Y+eqrr5xFBXXipEKXfcmO68SHxxcvH987Y7+Qd86yN2kVgYbzcq7XeuAKg2s6ncWNCXGidcLJx48fncUK6sTphC77kt3UibIqTK4TAyceOea2JEfg7d2VukkuX10/vKVPy/XDBz4kvHj9Sc49XjqRp7Fu3+mhN7dXYSUu7Nx0xuOF5uVc31cYXNPpLG5MiBOuE6VQRnIWJ6gTJxK67EvwPlHYe4S8c5aKzM5N5yw2ApSgb96KEmpAxfF3N1wtWDfJ/VjJ84ZZ7m5epmFD87pSErhZWdJxQvNyrneFgRWnc9PqLG5MiBNK91X58ccfnaUUNxRkEaHLvuRkdUJu6fAsefP204Mo4dD719ehEUhPnS8fH+jBMFLvwwOKJT5CdixunLs3vAYr8Wj3rDTOOCHvROeh8nSBuGxxk5jz+Hy2kiNAokHgaHNTjwahOlHbiOPFRf7N62sOb6hVr/Ne5Nl1bX5JxwnNq+l+srgxISOlc7FBVhSKfMkp6wSn77d3ksftlxUsZKHHzNBTykNvn5B0Uh+5/00a0rygfUrJZ7lxut36hbwTvZxOl33kmNuSHIEo4U3i5XUOppTISAxC+FKImPEmweIjz1uvu6CfekrVeLzQvC7pTxA3JmSkuIsNsppQ5EtO+j4R79KqEhNIwN3P4/vYDoGUOLhPKXqWG0c7HBLyTvSBoY4cc1uSI8BSjUApVESJxb53CrNwBQolii1u9qrxePH+QlYUBL+VUORLVq8T9Gm/SnL3c18f+55RnmXt1mKlPGu4fyHknegDQx055rYkR4ClGoG6zPoOykeeFR6QLW72qvF48f5CVhQEv5VQ5Eta1Il094YfIbqW3j4h0XQrh/0GyZ6rTSf5LBknjdzt1i/knejFIvPUpMxIiGcuOQIs1QiokEXfIcqjx4iPvDmULOby4J3l7zNnTEri/YWsKAh+K6HIlzT43km+tr66enF7Fyz2fu7rQ4f46wuGLdRZ2sV3U6Xo0TROHnmckHei81B2OqPzyi//d2wSF4EY1QRl7fyrfv7LCJPER94cyha7gNIyqXh7fyErCoLfSijyJSerE6cTSvSzfxqdIOSds+xNWkVgb/NCSBD8VkKRL9lMndA3jHHPhuFbqS6zHmlJyDtn2Zu0isDe5oWQIPithCJfssH3iUZC3jnL3qRVBPY2L4QEwW8lFPmSXCfkXxqaBw0lAwMAALgIQp0QFQAAAChAnQAAADAE6gQAAIAhUCcAAAAMgToBAABgCNQJAAAAQ6BOAAAAGAJ1AgAAwBCoEwAAAIZAnQAAADAE6gQAAIB+/vGP/wen3X4KSzcdUAAAAABJRU5ErkJggg==;" vertex="1" parent="1">
          <mxGeometry x="834.5" y="230" width="525" height="165" as="geometry" />
        </mxCell>
        <mxCell id="bQvXC9ChqrMoX_zcABg8-7" value="" style="shape=image;verticalLabelPosition=bottom;labelBackgroundColor=default;verticalAlign=top;aspect=fixed;imageAspect=0;image=data:image/png,iVBORw0KGgoAAAANSUhEUgAAAe4AAAB9CAIAAADr8BdYAAAAAXNSR0IArs4c6QAAAARnQU1BAACxjwv8YQUAAAAJcEhZcwAADsMAAA7DAcdvqGQAABcsSURBVHhe7Z27jh23k8bPQ0mAJnXuB3A0GEBzHmGBTdaJAkWaV9hUiTLNUygR4EhKnDgSFn/sLmDDt/UWWcVidZHdp++Xc74fCsfFIpssVnd/hzOyrdO//vU//wkAAODIiJT/90zMOBUAAICeZCn/Zw5oKvH2yi+//CLebbDVfm9tXUCg+FtBlYeUXzm3JqlQkw1B8beCKg8pv3JuTVKhJhuC4m8FVR5SfuXcmqRCTTYExd8KqvzOpPzr093d01dpRMrING7taZu0Xy7+qFuwVZ1nWPf5fIqcnyXQytwP59G5tZdrP1DlV5FyeuL55RDOz23vQBmf+22pPW0+P+Jq3tD62xV3nPfYfTtG3YLWdXWqqJiX5XIgHftVOheltHrvVrczqkTXR5/it75bqOEEqPJrSXnPm1SOnPsG15825hofpnZJPZ91t20b5/iosrSvG6ciZ5mvywvrst+h5qG39/eL3c4iuzkYl4vfAWo4Aar8RlJu3wH7XV2Jz3xCrj9tTCPPkEF6p+NJ7Zl6Sf4kKely+e+PrreLtsXb4Kbdvo3YeG+61qVPW67QtDUM7Ublh6zdS0206ZeOPykw8YaLz712EvYl4me5WXoVPxDqLLFQPC5lqmE8Yzyln9lyx61Xtwuq/La/YFEtce9GuNNZK2e9g/WnjXFraXbsUK8+TJJgkT/7e6L77ZINcNNuwUZsvDft6941z+O1GmrMdPakn5rwvLWlq5vlgbaL/e6rbo/W4suLH9GKuZraYurrbxn+MNwOVPlNT+XxnhmSxNvx5bXTqD9tjF9Lnh35R6OXYo1jW2SPD9oFaWPHftoBZbw37W91PHHZhaR6DNewWfkhXNivECeuLm1H2gGuDuxrxHbdMP2KL1CY65rb1WLyOAZFboEqv7WUX4yXY6ZRf9qYYq34xic9afRSkH/lMmduS3Dx7SL3/BSbdoPs20+O96Z7XfqniHTL5I3KD6GXmnCzurQGyVHlKMe7iO26YXoVX6Hbe1HKyXd3IbrAQZXf9nfl4WY2XtYclwvsrZyF+tPGVPPUp832SoJF/vujx9uVXqmwWdlNcDminzHen0vrygq8eqWGoT9Vfgg99xtXrC2tI80lkmv4R60+0q5s4tboUXyFik8Vo09b5VhDO974ob8yDwhQ5ffzx55JTTge3rIYM/+exSzUnzamzNOGbKr63rr8Obgner1d6YXS3UjZeZgb3I+ekhpauiqRe0et2rGuLECYaculzbLpGcwPoQ5v1McMTq0bpUfxCSpSqJa8Qs411WbKuwBKqPKrSPmeqD9tbdBzpE+PeW8PxLD9zsfUdW3lh7DVfgGB4m8FVR5S3gXpSTp+Q8qHMXHdRuWHADXZEBR/K6jykPIrZ6v93tq6gEDxt4IqDym/cm5NUqEmG4LibwVVHlJ+5dyapEJNNgTF3wqqvEg5AACA43Jzp3Jw9fw4GZkIgOMAKQfXhujxBGQiAI4DpBxcGyrH1mlrEtZnKALAsYCUg2vDyjE7+lk2CeszFAHgWNSl/Ndff/3tt9/+/vtvafemS8qP+Z/YgMOhcqyirE11tElYn6EIAMeiVcpfv3797du3v/76S0L9yFJeCvfepLwjn6v81qFN2f9JiNlj7BHm37ednf8TzkakTGLcf+aZUTm2TluTsD5DEbAG5iG8zKDBC7GHHFpolfLvvvtuhJpfyan8QKn2J2zK/B+J0h7pn0a/w/+8aOat22Ly/1nFRsLySbttfAIqx6XjfML5jLTB0sx0x9djxwl3STnxww8//PTTT3/88Yd0XKJyKg/vamJXVeAM42f826cC7tB4rMfsArxf/Z+bcLP831ZJfD4aE8blywi7My0tejwBmQhMgG6mvEX8gNmbK34e0my1/FjGV8XP5gtL0FMk8P98X/8+ObdInIQONKGtf/mITFIZeSRluCDlxPfff09q/vvvv0tfJ4WUhxLnSu2qAJxPvDuSocra3lKdhbQp0U7dvt+p0dZZMEuQGypsF9WaE5VkxiB6PAGZCMwCP1D25qqfgzRIHjuK1R9AHhy6U788PM0r7AD7MOfL45JhweSEf1ZHuoVSV4ztjctSTpCaf/v2rc/Z3Eu53fneqtCR4d5SnQW3O/vJAwTzTM8CLSFHmXSYKSNMJRlwWNxdtjdX/dJhv/oE8hg30kUIN0AyYMxPhM7pGFkO5uDOWPhUXi3HTujIcG+pzoLZFLnyl8Dl80Zi9r2XE2qEHPvSzr402IpwZ9O95Ntqb676pcP+jFJuuwiNOKdjpPXLYbvhgpQP0nHCS7lRCgo40dgYztDeG/VDrrOeTPeA3Wm4L3IiDnttxnNrFhrrRmwkLJhKXY4EB8XcSnnAwj/kRktEPA7m58AMbEIdPI8+JOI3r7ADGo9XRHu90z7S+uTUk9ueLil//fr1zz///Oeff0q0B4WUi2gE3djb3+fEGVZvWMp6V/lOxe6UoB2mJvXEWxSY/zl16xLNSFw9/p3Xi6UA1ie99+1/nZ4ZFlr5KWx5APixsQ+P+vla+WNPfbpsV1jGXlI6Mq450o7ZsTK0SvnUf68cAADAWrRK+QgdJyDlAIA50GO9ssOj8I6oS/loIOUAALA+Wcp/mQNIOQAArM/8p/L/+t+/92yUpItct22131tbF0aG4m9lVHlI+ZXbVvu9tXVhZCj+VkaVh5RfuW2131tbF0aG4m9lVHlI+ZXbVvu9tXVhZCj+VkaV35+Uf3734uW7Ty44n1GSLhJs4UU3tPp+l7dbWxdGhuJvZVT5Q0n5HIJLSbpIsNGLau8cuS1heb8fHk+aIWV7evXmA31aXr35zF3Ci7df5NrhVq/z8ubXpV0rDx/9beKm2bIUgbskQlSDhNQwFypM+Hj/UrqVopJf3pRjHh7T5I/veSFKOF3y/uEUbl+ZgL9lHyszy+px0cYzcHGJx/ept4/l4jfzvP9QCWr1DLpckar62mwEa/VseXo/vX0lI3hMS1bNe1qrfCP59ISI2fy77zXjSyEV621UeUh5tNGLzpHSomb3S+8qPyLkyEPsk/94nx/Kj/fmPR9q9Tovb3bd+NJmMXr/ECXSbpmbNkg+X3IxqF1Bu43W26vc4NLcGG1Wpn0VuipzttyycmRlzktL2K//HpaLbychn7XJBrWrOn+It1RVm9Vr2yZMFh6JPODLm4faPCFSrF4fliLk2689N0MOmvEXZhum5lT5xaQ8ZvaGvuf1HeCvm/TY5e9G3kAeIBHz5cmX5C+35ndps16XjJLMzamLml76mqUZaEC4hSFy/0F6iyPJsIQnmt8vJ9kmTEEXzBM5wRrrrmhmXap/UWq3ZS1IDqYKXA5G4whJHmuoHVAOLs2N0WZ03r99xWfD8B38NnZV5my5ZcVIerZpNvkWTwMuLTHsecjFd6tzs0ipTJKtmurl2bTLBbPRdi49Ehpx97RtmDQbhfL5s9nxF2arDeg0qvySUp6/WMw+OcXQK5FwVgoDjOS5PVTek2JC9nsYJZn8ORZ1Dn3ys0KXqxMGjE94opn9BguP18tXxbdLJGZFAwJ6uBtrbt3VLK8bdpdqruaKz00blPvVHGmDsTyCuTZIIVXVXmX9NnNjtClOfGzY109ZOxIH12+ZTiWWvtj8BmtLpAvDySb5faxR/MaFaZWYqcBrSYPh+9WWapqNm34J0+WCam2XyOoRM3PjnrYPC5NoqsGK/Nns+O7ZghnF6GFU+WVP5fW8Q4qUKDu1wezbqzRSdgWG7Vn8WRa1veS4po3LVcyAhCda3i+bJuZ8Z/QUEhME3a+7ltXvr5oLcpM+410J2OJIqBl0c2pEp+oYXJob42ZLMt0QlLY53S1rmzm8elFoOpYIgUjbWi3WXnzzhZGD5TAX9Kk2Bly4tma5V35iDhssL9EIO/bTDYtzBGxXHpny9/GmX4/EiuXmBaPKryXlLm8xSpdo3mP26VOroL2lM9woSfHtJOzT59BFXW/bVdpc3fJ+2WwmF7Ia9jA58+uuZWbd5ovE5rbs7g45uuXuoJqJ0BlWfkdRdLWaG6NN6/DqHHHjvZlb1hwZzteG8IP/yCW6rP5yabOcubZWV6psbbNplwtmaz4SbfOYSL6nHcPI0bJX83fjnV+NlAM6jSq/ipRHyZYf6lPvveyQfxjJJQ6FoAvN5RKJV6WSFRP2Nkoy+XMsqr18rc7gnfEJTzSz32iamPM10nasG2h+3bXMrhtfqvyOpV/l5Zc5DKD92p2Gs625oR1BtkYk3OV8QOtTQDdGm20LVePVW9YYGQ6h+fHjH/yrU1XjvS0XvzFJevjbVrSRaqoX75rapeTze03Ggy9kle5p9zB9Qur5F+N7LDpILqjy60h5bMbvqECIxwJF5Fsr1CI2+c8P9TeAJkLDOChf1LE3YBe6ZJRkbs6xqPTmP/aM8aoTrwuka1ewxn7JNB/2JSGG3pb0g2cgvzwjzK+7lrl1o5onWPLKG2FrIpfEfzmsGpQrGT+s9dVts/rtaP9dRB7DtN8yN3NjtqiMLnMyXcLFe1sufiPPlFUjSLTnkCNJxO21PKAxW/rC9pdXzD4S/qUOtNzTS8Oqj03On3ybW3U28QlzH/sZVX4xKd+rUZIuct221X5vbV0YGYq/lVHlIeVXblvt99bWvWT5x9DE4JPX/m1nxb+JmrNR5SHlV25b7ffW1oWRofhbGVU+S7n85RHToKloUgAAAGsy/6lcPAA24sfJyEQAHAdIObg2RI8nIBMBcBwg5eDaUDm2TluTsD5DEQCOBaQcXBtWjtnRz7JJWJ+hCADHYsdS/vXp7u7pqzT2x8j06LLT6fwsrUE8n0+nPVdkL6gcqyhrUx1tEtZnKALAsdillLNKXqOUByFv6PjzOU8SpDqiI4oIBUbXxF4b8rh7eg5fK4bYHbqE0Utti8qxddqahPUZigBwLHAqH8uY9BpKLJqZAtTHgh3i0SsjDXc4OqHkUdmCzfD5PHqlTVE5Lh3nE85npA3AcVhSykWrklwF4TifY+j8LH1ZqgQdufypPKyqWiUqV83kKZyNVQOF85N2xWb7RvLlVieZOCBGJIGABMuIc4fDF9Mnz1yZyyx6WESPJyATAXAclpPyQomCgkTloB51nJTwRTre9c5NTtEkK2gmSabjNswo29WxkXy5bEsaTA7ZDNgvI94dAV19R9+oPEFMLxMzoQGBCUtsjujxBGQiAI7DYlLuZIK0QWWr6siwKCgc197lSLKYf2NdzST25GyZalfH5cUEgRyyCs1+GYlUZhmCvbxjKlqQ0PUBAPtmSSl3MqER59Cnnmk1op8xvBi0RhRNXqgtkxiQCPtE2UWfHZcXEwRyqBTrFvm2Cj8CO1UlIcvElQAA67HoL1iaSqDC4RwjKOTmw6yJLwctcj6nM3lbJjHCsbwj28W+iYSh/vJYEtskzAAVznBt9MoI+26OYdjry7koojucuhIAYD3W+WPP5m8bCieoPo8iVdWROmxRaBWjz/VMpLOxI/5jT+lKwy5cHvpz20ym0m1agTISLsrpjsCmZDMIcMbSiE0eBwDYO0tKOSiYqsSN7wIAABAg5SsTj73j1Dyc0SHkAIAKkHIAADg8WcrlL4+YBqQcAADWZ/5TufubivZmlKSLXLdttd8N1/23f/+PiebmhPW0W3u59mNUeUj5ldtW+91wXafLI8zNCetpt/Zy7ceo8pDyK7et9rvhuizHv/7+f9Zpazqfzc0J62m39nLtx6jykPIrt632u+G6LMck0Fa1Va9d0/lsbk5YT7u1l2s/RpWHlI+1z+9evHz3yQUv25c3L0+nh49FvId9eDydXr35XMQ7bbb9DrQN12U5Vsl22u2azmdzc8J62lY3HUaVh5SPtVFS/untq6aOf7zPk3y8l//M8vF9W4TUfOCieb/2WkqevhU+0Kclfk+ELuHF2y9y7XCbrc4DjdZlOW7Tbtd0PpubE9bTtrrpMKo8pHysjZFykuZ8rA6yTqRJ3j+c7j+keJT7MsKHeg72NLtfnZCcINOVLdgMP96P++kh2mx1Hmi0Lsux0252nM9N67O5OWE9baubDqPKLyblQSYe71/G090pKogKRzj38TGThElPoCsZJSl+ToOMJCz4Iq+BdER9+e7NAzV5pB6TT/dvtSs2VXOF2uXlmVprkhIwwTISfFpi0GE575eM56FPntlMm8wsOs0a665otK4q8mhzc8J62lY3HUaVX1LK9XwXfslLApHl8v7hMWqf/fXCSkZJqq+n1JChO4FyJOxCT8HNE7HtKjW6cnlNhbOYWg1lv4xEv0y10+x+ycJ5/OUrSSmml4mZ0IDAhPM4m1t3NaN1nS6PMDcnrKdtddNhVPlFT+WqbqREQdbfP/Dn43vqZaWbLBlDjZLMzSSLnFiIWHWj/O0uGjtqNtXvuHwuKW/OedEa+yWzl3dMRZUhJtwdv+5attW6MDIUfyujyq8q5eE8/oFP4vFXKx/4bL6qUZKmyb/hST8cUM76kwTn3yF8ZRd9dlzeX8ol2CLf007ljama6RVmv0sGm193LdtqXRgZir+VUeVXkXJSH/Y/v7t/KXL26e3j/cOjCN+KRknaJv+2RxTW5Ezx4lhd/IJFu9i/cLmpg5oZoL/tCdfKzwo+wr7/Pug0t99K2trFEf2eKHuHmF93LdtqXRgZir+VUeUX/V25ooc7OZ4Hv9S1VYySbERCnvnsKb8pPp1ekL5Tek7OzKb4jz2dJl643G6fBToRJZt6GVsuF2l+nfSwyn5t2jI/Q7mF+RM51RHm113LtloXRobib2VU+XV+wbIjoyRdZE2z5+sxNvz7b6v93tq6MDIUfyujykPKV7Z47B2n5qTjw0/KW+331taFkaH4WxlVfjEp36tRki5y3bbVfm9tXRgZir+VUeWzlMtfHjENmoomBQAAsCbzn8rFA2AjfpyMTATAcYCUg2tD9HgCMhEAxwFSDq4NlWPrtDUJ6zMUAeBYQMrBtWHlmB39LJuE9RmKAHAsIOVj+fp0d/f0VRr9octOp/OztDp4Pp9OYxYAKscqytpUR5uE9RmKAHAsIOVjGSXlQchFx4NUJ3gijSSlp8CMYm5nC3ncPT2HrxVD7I7fNcyMi6+JyrF12pqE9RmKAHAsIOVjGSPlVk3JbxzOtW3k3rhzoEtIHpUtNDOcce0VUTkuHecTzmekDcBxWEzKo0w8Nc+ZQZmEqBdhzPkcY+dn6TQixnixmY2whGqVqFwtQ94Fj6Rhwvmp5wbN5VYn04oJ04xX8TDjzgFPF7KMa1Vmd1kdEtHjCchEAByHJaVcdbkhYRFWjDAmdlBTnfBPIygVuZmNvIxZUOCI3UVs5FF9N5gvaW6FRghp5zrQ+DY8BzTfHX1/8pQxvUzKIzDroisjejwBmQiA47DsqVx0S32rHRSxcevYYYHFdCUJ5fOZl2/PkLvUJ6pdHZcXEySCuj59tZpt/JZrxmMn7JicFf3Igg7ATbGilNMnH/xshAPO0ebi0EokV0nJqdWWoUbYJ8ou+uy4vJggweEW+bYKPwt28paEErOvDQBYinWlPEXIbRxavRPOhOuoCC14PqczuaZRZphiOSvbxb6JhKH+8nT+Tr5MFYYGV4UzBcS3E8yAnbGcnSK6w/nXBgAsxaq/YAkKHQl/2EkRHVN1ZKz8DncpwkKqXu0ZMiYr/mNP6UrDLlwe+lPbTiXL69VWTU1ys2BTMjlEOGNpLFx3AMCcLCbloMYwbTbKDwAAHUDKVyYee/uoeTijQ8gBAL2AlAMAwOHJUi5/ecQ0IOUAALA+QcrFBQAAcEwg5QAAcHgg5QAAcHgg5QAAcHgg5QAAcHgg5QAAcHgg5QAAcHgg5QAAcHgg5QAAcHgg5QAAcHgg5QAAcHgg5QAAcHgg5QAAcHgg5QAAcHgg5QAAcHgg5QAAcHgg5QAAcHgg5QAAcHgg5QAAcHD++ef/ATAOUZIUWVXAAAAAAElFTkSuQmCC;" vertex="1" parent="1">
          <mxGeometry x="834.5" y="500" width="494" height="125" as="geometry" />
        </mxCell>
        <mxCell id="bQvXC9ChqrMoX_zcABg8-8" value="Manager" style="text;strokeColor=none;fillColor=none;align=left;verticalAlign=middle;spacingLeft=4;spacingRight=4;overflow=hidden;points=[[0,0.5],[1,0.5]];portConstraint=eastwest;rotatable=0;whiteSpace=wrap;html=1;" vertex="1" parent="1">
          <mxGeometry x="834.5" y="460" width="80" height="30" as="geometry" />
        </mxCell>
        <mxCell id="bQvXC9ChqrMoX_zcABg8-9" value="Users" style="text;strokeColor=none;fillColor=none;align=left;verticalAlign=middle;spacingLeft=4;spacingRight=4;overflow=hidden;points=[[0,0.5],[1,0.5]];portConstraint=eastwest;rotatable=0;whiteSpace=wrap;html=1;" vertex="1" parent="1">
          <mxGeometry x="50" y="400" width="80" height="30" as="geometry" />
        </mxCell>
        <mxCell id="bQvXC9ChqrMoX_zcABg8-10" value="Traffic" style="text;strokeColor=none;fillColor=none;align=left;verticalAlign=middle;spacingLeft=4;spacingRight=4;overflow=hidden;points=[[0,0.5],[1,0.5]];portConstraint=eastwest;rotatable=0;whiteSpace=wrap;html=1;" vertex="1" parent="1">
          <mxGeometry x="50" y="-29" width="80" height="30" as="geometry" />
        </mxCell>
        <mxCell id="bQvXC9ChqrMoX_zcABg8-11" value="" style="shape=image;verticalLabelPosition=bottom;labelBackgroundColor=default;verticalAlign=top;aspect=fixed;imageAspect=0;image=data:image/png,iVBORw0KGgoAAAANSUhEUgAAAfQAAAB/CAIAAACWtKdyAAAAAXNSR0IArs4c6QAAAARnQU1BAACxjwv8YQUAAAAJcEhZcwAADsMAAA7DAcdvqGQAABaOSURBVHhe7Z29jtzGssf3oSRAmzr3AzhaLCDNI1zgJuckChRpX+GkSpRpn8KJAUdW4sSRcIOLg2PDX1e3uqu6uljd5HD4Mc0h/z8URt3Vza5iNfknd2Rr7/7zn99gMBgMtjO7+xcAAIB98fXr1yDu/7sQCy4FAABgMlncqTUfflxsmV9++UVaR6VVBY4WFxAofiu48hD3Y3E0kcWONwTFbwVXHuJ+LI4mstjxhqD4reDKQ9yPxdFEFjveEBS/FVz5LYn756f7+6fP0omUnnngaptVAd6OSZvSqvILxH0+3UVOz+LoZenL9dbB7dYKrvz64k5XPN8cwum57x4o/UvfLbWrzedH7PgOrd9vsQb5rIc3aNKm9MbVpaKGnhfQCxk4X2UwKKU1+mz1dCaVaH+MKX7v3YYazoArfxVxH7lJ5cylN7h+tTHHuJj6RfZ00vPvKwX7JxWqP25cihrrPFLPxOX2gL6H0dFPHHs6q5zNjXG++AOghjPgyrcQd3sP2Kd3xb/wW3T9amM6eYYM0j0d392eaZTkT5KSIZf/LTB0v9GJ8olx1xbEeqx/NENx6dMWMHRtVUO/sxeXxB6lL9r1oeNPE0y8BKTNo3YRbovHr3JYRhU/EOosvlA8LmWqYXzreEo/1+WBo1d3CK58w69lVEvcvRF2OqvnojtYv9oYF0uz4waN6sUkCRb5c3vbDN9vckrctSdlPdY/mv6499139lpV1WcGRzJOX3jdWujqyfJEO8Tt4aOOR2/xRQoiWjFXU1tMFQTL5RfDceDKt3tzj3tmSKJv55fHzqN+tTE+llw78kdnlHydF7nIbVxoZ8SOG/bTTij9o+m/z+NbmQ0k9WS4qt29uIQz5yvEhauh7Uw7wdWB2+qxQwdmXPEFcnNdc79aTJ7HoMg9cOWbivtZfzlnHvWrjSlixTs+6UlnlJz8Rc2SuV2Hs/cbNU9PsWtPmdv2k/2jGY5Lf4ps9yze2YtLGKUv3K2GVic1VEvK+c5jhw7MqOIrtL1nxZ3abhdiEzi48g2/cw+b2blZs18OsFu5CPWrjanmqVebHZUEi/xvgRH3W7rJwunL+YUme/Qz+sdzLq5E4OiVqobxtBeXMPJ8Y8RaaJ1pDpFcwx+1+ki/chJHY0TxFSo+VYw+bZVjDe180w7jlXVAgCu/kb9QTWrC/nCXRZ/5LzgWoX61MWWe1mVT1fvW5c/ObTPqfku3mJ6fbARPc5PHMVJkQ0+jEnl0UtSBuBKAMMuWoU3YdFXmy1Knd+pjJqfeQRlRfIKKFKolN5Vrmmoz5S6AEq78+uK+JepXWx90HenVY+7bm+ayCizH3Lh2Ly6h1fkCAsVvBVce4t4L6Ul6RYe4z2Vm3M5eXAL0pSEofiu48hD3Y9GqAkeLCwgUvxVceYj7sTiayGLHG4Lit4IrD3E/FkcTWex4Q1D8VnDlg7gDAADYEyLux3lzBwfkn7ORhQC4KSDuYOeIQs9AFgLgpoC4g52jAm0bfV3CthnyAHBzQNzBzrECzQ39LLuEbTPkAeDmqIj7r7/++ttvv/3999/SH82QuO/lfwICN4cKtMq0drWhXcK2GfIAcHPUxf3169dfvnz566+/xDWOLO6llG9N3AfyOchziE7T/uMn5qzjiLB8Jezq/L+ddjxlEtP+19SMCrRt9HUJ22bIA66BuQjPc9HkldhCDv3Uxf2bb76ZoO87eXO/oVTnEE7T/NtL6azpT6Po4Z9pWrgYtrz8L8ZYTwif1Nz6Z6ACXTZcm3BtRvpgbRba8eux7YR7xZ347rvvfvzxxz/++EMGzlF5cw/3amJTVeAM42f8DV4B9xp5W5fZxXAF9B9t4W75D3SJfzk6C8bwpYebC4UWhZ6BLARmQJsp9xVfYHZzpZ2ndHs9P7rxUfGzewsTdBUJ/MsJ9Lf0uSBxEXrFCX39dS2ySGXmjWnFkLgT3377Len777//LmODFOIeSpwrtakCcD5xdyRDlbWtpboS6TRFTbUg/tyN2i6CCUHNUHMbVHeBqCQzBVHoGchCYBH4grKbq+3spEly2ZGvfgHy5DCcxuXi6R5hJ9iLOR8eQ4aAqRH+rM50gdJQ9G2QM+JOkL5/+fJlzPu7F3d75lurwkCGW0t1Jdz52k+eIJirfBEohLzupBee0sNUkgE3i9tlu7naLhvcrl6BPMfNdB7CTZAMGPNTo2sMzCwns3N7rPnmXi3HRhjIcGuproQ5TWrKr9bL7ySJxatRLqgeatjbePHQoBVhZ9Ne8rbazdV22eD2guJuhwj1uMbATNsup22JIXG/SNkJL+5GKcjhRKMxnKHdG22HXBd9V90m9tzDTslbczj7rj/3FqETN2I9IWAqfjkT3ChmK+UCC3/IRotHWuzM14GZ2IUGeB29SKTdPcJO6FxeER31jf6Ztk2NenKboFfcX79+/fPPP//555/iHUEh7iIaQTe29juxOMPqhqWsN5Xv8thzJ+icU5dG4qYFlr9yXVyi64nR4+8fXy0FcH2SEvT/kkIzLfTyVdhzAfBlYy8ebedj5S9U9eqyQyGMPaRsyLzuTDtn21pRF/e5/507AACAptTFfYKyExB3AMA66Ku/ss3X5Q1REffJQNwBAGAjiLj/sgQQdwAA2AgLv7n/z7//3rJRks5zNGtVgYZx/+u//zHT3JqwkYbbrZVR5QmI+7GsVQUaxnVKPcHcmrCRhtutlVHlCYj7saxVBRrGZYH+9ff/s42+rmuzuTVhIw23WyujyhMQ92NZqwo0jMsCTZJtdVwV3HVdm82tCRtpuN1aGVWeaCHuP7x/8fL99855FaMknWeiTTyFn96+vLt7/FT4R9jHN3d3r97+UPgvtMUqcKE1jMsCrSLu1Nx1XZvNrQkbaa02HUaVJ1YTd5W/gcbVjZJ0nok26RS+f/eqq+yfHvIinx7kv95986HPQ/o+u265AnY1Oh16cnykT0t8loQh4cW7n+TYy22xyl9oFJcFuk/NXde12dyasJHWatNhVHlifXEvPZOUcRGjJJ1nok05BRLr/OodhJ5Ii3x4vHv4mPzxAVB6+MWfnZPNVkBDUCMId+WkbM6fHqb9zBFtscpfaBSXBdqpOTdcm7u2zebWhI20VpsOo8oTK4l7/P4h8uLxTZSM0mPfChf4wmGMUZLSDqHtO3Joi+AG0kvry/dvH6nLM/VV+u7hnQ7FrqqwUDu8fO/OYioJGGfpCW0KMef1mSxXgIxXpk+OZQIlM2nMs07cKxrFVY2ebG5N2EhrtekwqjzR8GuZun6tapSktvW9NciueydlD2WVhNu/NduhUrUrh9d0OZ+11VBul57YLlO90GwFyMI7+8tXkmRMOBNzowmBeUHJXNyrGcV1Sj3B3JqwkdZq02FUeaKduDspyVq2olGSuZuE8sNj+rnBpsQZcsI8pG3X1fbA4UuJe3fNCdapAJldcGBxqhUxQ+J93GtZq7gwMhS/lVHliabi3iclqxklabr0Mh5lVLPSb4fKDF225RB9Dhw+XtzF2SPoS7+5dxbvJlyYfd5cbD7utaxVXBgZit/KqPLEmuLOWqCS4T0kFuaLjqsYJWm7JLgPj29Ec420kb949S6+ltEhbp85POqy7ZKZCfodUThWfp7wHm4v+Z07WXkiOsQefZaUo5eYj3staxUXRobitzKqPLGauKeva/Nfn5Ye0ovgiMwQjvFGSXY8IYH8NirfL2uGTs5MtvwXqjKUpp05PDzM0qs9S3Yiinh41EU0n9LTfcBMskoF7IlIRIayzX8NPvMvvX3ca1mruDAyFL+VUeWJFcV9g0ZJOs81zb6DT7Hy3f9ya1WBo8WFkaH4rYwqT0Dcr2nxRXiavoe/0pz17szWqgJHiwsjQ/FbGVWegLgfy1pV4GhxYWQofiujyhMi7vLrNuZBS/GiAAAA2rLwm7u0ANgM/5yNLATATQFxBztHFHoGshAANwXEHewcFWjb6OsSts2QB4CbA+IOdo4VaG7oZ9klbJshDwA3B8R9Ep+f7u+fPktnPHTY3d3pWXozeT7d3U1J4mioQKtMa1cb2iVsmyEPADfHlsT9UsWcqLBLMCl0kHZW9ijyTFomSHVEtX+EhxyTK2CPDfncPz3nrCJxuJLqjaECbRt9XcK2GfIAcHNA3CcxJbRR0+eTk2f6I8t+bI3xdJqXowtKEpWTkhFpT47UFBXosuHahGsz0gfgplhP3EkXhKAJQYVyj3XkqfMimmeI0Jje+fmXEo5WrRKVyyv6oDzTnNFTmc+5w61OZuKkz5JAdqSUBj2ueTl8MH3yypW1TNCbRRR6BrIQADfFSuKugsGQRkhXBsIfaQINsqZkcSmE7Mz8KeQYJprAHhs0dvKsaj5K5fCeZMVrM+D2GI9vToCOvr+/lwViwpmYLk0IzAjRHFHoGchCANwU64i7UzLbDQpyenYebttGlJTEufnTSLL4fEqr2LjkqwZlqkMDhxcLRIK0Rp9VaG6P8URq616APXxgKQpIaHwAwObZqrjbw4nh+ROh46No6mr6Bs4r2/VdrHKIPgcOLxaIeqmOUqzHeCLGPQW7VJFil5mRAABXpd3XMqWm5IPyfOHM/InQAqdTem83IcLC1DYeH8wOcdt4wlR/eDwne0juBFQ4w0hsjfFwu7PQpdjjy7XIkwLNjgQAuCqr/YUqaUH8foII+pC7US2sUph2EHX+stcc7oWyOn8aIYqql6wWFiTFd0EJkxL/harL58zhYVz6ZqVA92jNZ4wnrJRPYAI2SZeW1F06c8oMALg+q4k7KJitxAX5eQEAAB0g7tckvggvpe/hPR7SDgCoA3EHAIAdIuIuv25jHhB3AADYCAu/ubvf9rQ1oySd52jWqgJHiwsjQ/FbGVWegLgfy1pV4GhxYWQofiujyhMQ92NZqwocLS6MDMVvZVR5AuJ+LGtVgaPFhZGh+K2MKk9sTNx/eP/i5fvvnXM5oySdJ9jKQTdl9Qqsb0eLCyND8VsZVZ64HXFfQoIpSecJNjmoji6R23UsV+DjmzvNmfK/e/X2I31aXr39gYeEF+9+kmMvt3rl1zcfl85aefzkN4675pSlCDwkHqLqJKSGuVBhwTcPL2VYKSr509tyzuObtPibDxyIEk6HfHi8C9tXJuC37FNlZYkeg3augbMh3nxIo2MsF7+b58PHilOrZ9BwRara1m7HWatnz9X7/btXMoPn9GTV3dNa5TvJpytEzOY/vNeML4VUbLRR5QmI+4ygS6R0ZbMVoLuXLxpqyGXtT+fTQ75MPz2YO/9Sq1d+fbNx422c5enDYxRNe8rctU5q8yFnnToU1Nyovz3KTS7NzdFuZdlXYaiyZs+WlTMra54LYV8IRlguvl2E2qxW1qlD1fWDv6eq2q0e27dgsnBJ5Ak/vX2srRM8RfT6tOShtn0QuhWy08w/s9pl+k6VJ9YR95jZW3ry6z3AD6B02eWnJZ9AniAe8zjlQ/Ljrvt07dbrnFGSuTs3qBmlBy+tQBPCFgbPw0cZLV5SLkt4cfMV4LT7pCoohblGZ1gn7hXNxKUdKYrvTlkLkp2pAued0dhDIsiqaieUk0tzc7QbGx/eveL3x/BUfheHKmv2bFkxk652Wk2e62nCuRCXXQ+5+C46d4uUyiTZqqmeX02HnDMbnc65S0I9bk/7pkm3UyifP5udf2a12oRBo8oTq4l7ftSY8+QUw6h4wttTmGBE0J1D5T4pFuT2CKMkU3uJoK5Bn3yt0OHaCBOmJ7y4mQoECxfcy1fFEygS86QJAX0BnGou7tUsxw1nl3ZBzW0Hd61TdrA70zpjeQRzbBBHqqo9yrb7zM3RrjTihcRt/ZTYkTi5vmW6lFh61PkTrIVIB4a3n9QeY53idw5MUWKmAseSDsP71ZdqWo27PoQZck61vkMkesSs3NnT/mlhEU01WJE/m50/vFowoyEjjCpPrPjmXs87pEiJcqM2mdv2KPWUQ4HLzlnaiwS1o9RwXeuXo5gLEl7ccgXYNFXXdkbXJTFD4n3ca1l9x9Wck7v0GfcpYIsjrq7TrakeXWpgcmlujlstCXdHYvrWdFvWt3K4GaP0DIQIjkhfrB7rL755hGRnOc05faqdCWeOrVkelZ+zwwmWh6iHG/bTTYtrBOxQnpny9/5uu+6JFcvdM0aVJ64i7i5vMUqX6O4xt+lTq6CjZeNyoySlbRfhNn1eGtSN9h2l3Q1YrgCbze1MnpddXs583GuZidu9tdjcKbv9ooae8rBTzXjoPVe+2SiGes3N0a5tcHT2uPnezJZ1Z4Z3cEP4umBiiCGr327aLVeuxRpKla1vNR1yzmzdS6JvHePJezowjRpa9mr+br5rVz3lhEGjyhPri3sUcfnBP40+yBnyDyy5xKEQdKA5XDzxqFSyYsHRRkmm9hJBdZSP1RV8Y3rCi5upQDRN1bXV0/fqd6H5uNcyGzfeZvmuS18J5ts7TKDztWca3n/NFg842TqesO/5JW5MAd0c7fYFqvqrW9aZGV5U8wXJXxdUl6r6R1sufmeRdDv0RbSeaqpnd03tXPL5TifjyWeySns6PE2vkHr+xfwRQS8SEKo8cQVxj9341AoEfyxQRJ5joRaxy38zqd8bGg9NY6c8uuNowAY6Z5Rk7i4RVEbzX6hGf7URjwukY5tYpwJkmiG3JUWG7p/042og304TzMe9lrm4Ud8TLILl1tiayCHxP02rOuVIxk/rvZn7rL4d/d9g5DlM/5a5lTurRa10mZNpCOcfbbn4nTxTVh0n0Z9D9iRZt8fyhM5q6RHuD6+YvST8bR7o2dNz06qXTc6f2ja36mrSJsw+jjOqPLGOuG/VKEnnOZq1qsDR4sLIUPxWRpUnIO7HslYVOFrcc5Z/eE1c/Ha2fdtY8Q9RczaqPAFxP5a1qsDR4sLIUPxWRpUnRNzl123Mg5biRQEAALRl4Td3aQEAAGgKxB0AAHYIxB0AAHYIxB0AAHbITYn756f7+6fP0gEAANDLtcS9qsvqHKnaC4r7wFILRtkyz6c7PU06Zeo806clDoch4farQufMnJ7FA8Bu2cab+0g9vY7sHkTco9SxyInOV07cPgGeTzcuiXq+4YEFeQd7Zx1x79w98Z5KwhFGGOqKs+NzvUD2LPf2yKHj51Pnda4Mv1+0CHrq/pxVD3eAOZfKmQKwN9Z6c893ErecjgR3Vnxzs5V3IHmSK0+bDS9Fn7o4xfHJ7J9w0vf3ubzyXIvEIoTqE2lPbhlzaXXaAOyT1b6WSbfP8ymKhCgma0W6r1RGbSOKScI8AOy0+fBS1cUXjLJ9qhUo6e7bbQJxB8dive/cSSro/hFt7wpHkgp1lg3FesrRyfBS1cUXjLJ9qhWoc+uCaPI/1BaDo7LiX6jSHXQ6ibbL7fT56ST3VOw/p3uMenLjBd3vSgh58hprfOcuC2o7J3MAqhVQyKOVKEdvDVX3Q+0wOCwrinvnHhJpCNrNhJ7RCx4QZ5wQ4NF0ED0rFtMXDm0SqCeze1wFYp0TXCDp7KIeevlB2sH+WVPcAQAANALiDgAAOwTiDgAAO0TEXX7dxjwg7gAAsBHu5E8AAAA7AuIOAAA7BOIOAAA7BOIOAAA7BOIOAAA7BOIOAAA7BOIOAAA7BOIOAAA7BOIOAAA7BOIOAAA7BOIOAAA7BOIOAAA7BOIOAAA7BOIOAAA7BOIOAAA7BOIOAAA7BOIOAAA7BOIOAAA7BOIOAAA7BOIOAAC74+vX/wcBHp4Tpj2jYwAAAABJRU5ErkJggg==;" vertex="1" parent="1">
          <mxGeometry x="834.5" y="40" width="500" height="127" as="geometry" />
        </mxCell>
        <mxCell id="bQvXC9ChqrMoX_zcABg8-12" value="Notice" style="text;strokeColor=none;fillColor=none;align=left;verticalAlign=middle;spacingLeft=4;spacingRight=4;overflow=hidden;points=[[0,0.5],[1,0.5]];portConstraint=eastwest;rotatable=0;whiteSpace=wrap;html=1;" vertex="1" parent="1">
          <mxGeometry x="834.5" y="-40" width="80" height="31" as="geometry" />
        </mxCell>
        <mxCell id="bQvXC9ChqrMoX_zcABg8-13" value="Qna" style="text;strokeColor=none;fillColor=none;align=left;verticalAlign=middle;spacingLeft=4;spacingRight=4;overflow=hidden;points=[[0,0.5],[1,0.5]];portConstraint=eastwest;rotatable=0;whiteSpace=wrap;html=1;" vertex="1" parent="1">
          <mxGeometry x="830" y="189" width="80" height="31" as="geometry" />
        </mxCell>
        <mxCell id="bQvXC9ChqrMoX_zcABg8-14" value="" style="shape=image;verticalLabelPosition=bottom;labelBackgroundColor=default;verticalAlign=top;aspect=fixed;imageAspect=0;image=data:image/png,iVBORw0KGgoAAAANSUhEUgAAAXIAAAA/CAIAAABy99RYAAAAAXNSR0IArs4c6QAAAARnQU1BAACxjwv8YQUAAAAJcEhZcwAADsMAAA7DAcdvqGQAAAtUSURBVHhe7Z2/jtw4Eof7oWzATp37ARwNBpiZRzjgkrvEgaP1K2zqxJn9FJss4Gg3ceLIuOCwWBv+d74fWSWqVKQkSs0WqVF9KPSUShSLVSSr2b2e2dPff382MTExKShWVkxMTArL6VfDMIyiuLLy30IU7MowjP3CZeVnCdAVa9vy4cMH1o5BrXiP5jeHo629HJATKyv742jbu+X5PdraywE5sbKyP462vVue36OtvRyQEysr++No27vl+T3a2ssBOWmprPz58vHjl3/yhSe2pDja1J4VL6U0L7GKWnku4Pft3clz95YNoyzMzNHWXg7IyeXLCuaJppS5ezs2c7E9b45TU6u9guX7qFHSS9lH3Mc4neS8xCpG/Yau/O6d37oLmYg3MOkUw8qONoSTl6KcsY0uvTwXuwM52aSsZOYubnnO1BL3cebGt/fdXYh2LHCyr0rLuF/fFZTLlO4Zv6RPVBZ3N7vWyXAyopkf2wSZzfYGclKjrMiZk+U8Yc86Y6Snlhh4d/1268u/g73FXWxFdsW31KjaY2opIywKgy5l+NIi7dlM+cWrTJe7lDl014PML/GdtXXDpXbtT1CEn3DW6a7shHS26F7GyBqbww2Dba5v8tS58G8HL7ujXn9jxnmjICcVPwSFHaBm1E1Av8MzEpueWkL1EHySgrth5thtNCrSW2J6KXMAdClDkBZpz2bc7+PhOSWVw2ATNzPJ27rUb8p1MlhqKG+RPv1UxOjYeLV7QofKpfQV1rxkea5aADmpd1rxqRR05Ua2j59NkZ5aQvfAE8U/BndhG7ydeVqc1ZltRop8lQ1iezbjW8i/1UpHnD2CcjjM/BJm4mV8x0nXsqVsoPJAerDIW+PkjY2Bmdz210lf1I7IGENrICdVy8qsPW6TIj21RNSDX33d2h7chZE+Fs17rMvsUoZ699JfygBJl69kz2baL35ywRjpfJD5JWRtXbpMug5GKGGbxu2VRd4aJ2tsAUQ/W1agq0F6dUcgJxW/W3E5Hiyx3s4PyAxPkJ5aIuk9TK28y26jUbVHxlLu1q8LlqNxKlnCq7fnM+eXPZD3RA7d/S7zS8iM13tMuQ4txSM8VvcjlR++TgShyBhbAGNDh3iVg/AuZHuhu/uJfloHOWnkK9tuD5DdrQ1vE/9lY4L01BKxd2mSAwhrSI2KjC2RtZS71Rui4WRSM9U4j8zt7a6CV9DfXeV1wi87AKLb2LVw262sfmmF5oP8iMbdVZqMsQH04TrjFaZUMRgiHuS+QE4uX1YuT3pqx8CkhakSa2hHLIu3HOf6lZlfQq14c2h5bLVATg5XVrC2u2OJlZVlnOl3kPkltLx1Wx5bLZCT451W9k+teI/mN4ejrb0ckBMrK/vjaNu75fk92trLATmxsrI/jra9W57fo629HJATV1YMwzAKch9OK8a9599nwx0Zm2BlxdgBXBvOgDsyNsHKirEDQmmQytglkDoBi7EZVlaMHSBLAynhNb4EUidgMTYjUVY+ffr0+fPnHz9+8HU2U2Vln//wzGiEUBpCgQiXQQmXQOoELMZmpMvKzc3Nx48fv3//zqY8+rISF5FtysqEl3tZ1xCU/KUVEaO/w5SPW/ZO/3R2YIkHse6f1/aE0iCVsUsgdQKWJhBzNM+ixhdi1RjSZeXJkycrKkvTp5UWZqg4Lijx62hdjPgpaon7zbXCoctk0m/6SItz39URaT+DUBpiRelA6QRfV6dQQrZj1YBHywp49uzZu3fvvn79yjfmSJxW3Arr2CCb5Ne/+j/h51Bvpvua0xko3vDLNnQZ/0of28sx6NC7jy2kFnLNteEMuKNLglh5kVH+Zeys902GVyOnOXrKvw7XM0CSGfrbOuFvVionvhO897jr8HeuuJNEyzIbZ6qsgKdPn6KyfPnyhe9NEpUVF3kfwKJxrYO8+FSw37DFthnAxnRB8T4O4etIxT4vgnAB1WVYOg05B4nBrIFrwxlwR9tA+ZaxB703ohHPCmzp+aHG7nZ3n3M7fEI2kHPdP+5dOoed4n4mWypH3S1vy2emrABUFnwayjmz6LIiB7RqcIuZ8LvNADZGRSdfqQEjFlAR4ILfw7p3sdhCJAZzf1FJkLEHPVZIT04QtVEtlQWoBjwCQhwklTLRMm5MxmwueVpJjvKiTPjdZgAbI4KCyn9osn+j6Sgee9xhsECRO6S462ZxgXehUtQy9qDHCukFy4q8BYJFKRMtpR43y2CqrCyqKUCXFbG+YVBL/SKQX5mIoLsRFH3HbgEZqcs2nxRcrEN7f1WEgV+PtDiHXarjlvcVESnn3/3gPLCFNTL2aRINh+AG9RNyyPrwCdlgkH1PuKuV8ZZSh5Ie3BSjZeXm5ub9+/ffvn1jawZRWeGl7lb7Nn8+j/wms9ONZYNRbIeMFCDC7hJ3fOIdixfFLMovGFq8d/m/MSg/hAbpFvv4X7QUzdxVP0kj+aGsytwGvX+Wv7INyZe3nBv5SKxwu2FL2WbVxkmXlXP/3YphGAcmXVZW1BRgZcUwziAcdwKLjggNkSgrq7GyYhgG4LLyoQRWVgzDAIVPK//568f2AtfKcr+lVrwV/f7jn/86U1SfpeRoay9HkBMrK/uTWvFW9KtqxApRfZaSo629HEFOrKzsT2rFW9EvlYZPX/4nlbFLpZOoPkvJ0dZejiAnVlb2J7XireiXSgOKhawgoXaoS6WTqD5LydHWXo4gJ22Uld9/efDwl9+UMVvgWllWysph/PH84el0/SayZ8jr29Pp0fPfI/ukFIt3oVT0S6UhlA9VR9Sl0klUn6WkVk5aFuSkalkJ23jPZeW3F4+GNeXNVd/Jmyv+Bwi3r8YsqCwLnfbxymcxeFSo13iV+JrlbjEPXvzBzy6XYnleKPBLpWGsjqhLpZOoPktJrZy0LMiJlRUha4aBMtEfN1yJAV0nr65PV687uy89sYUOO2TMFBlv6BCKKxmJEOQI31ytO1V5KZbnhQK/VBpUHSFF6XQpdRLVZymplZOWBTm5TFlxi/v2Ch8NPP1GYmiV+88OngfXt9gMz6/5ctEeg8A16/A7OBc4Xfv1G8/7opbh+HC6ehFu+cvksNXj8Vmj39g8AGGMLU6Hi0WHiD5eCPWDV+pZdNuJcHqeDPxuKPAbqsNqUX2Wklo5aVmQk4uVlfAO6b4+GC5rWOg9M+wB176rJud8KBDv3r2XIGSRvtRJYXoYicdTFSEENdjPpMcWr8dDnRQZL8SdUx4+4iH54fX4kaCBY4mLpCi/mwn8qhqxQlSfpaRWTloW5ORyp5WwJ7F/uvd5v7wddDc0k+0Hz2YJXPeX3RZ9dd3VNeV3wlfy1sTjpcrKsM9ZGcQLkY9PdIXMgDOKi/a7ldTymyMtj62WICdblRX3VaLY53Q3VpSeJ3AtLnEA8Rs49Kz8TviKb+F14vH8ssLGkVJy3mll0NVweJHIurZYtN+tpJbfHGl5bLUEObl8WcGegS4s7tsK0mGkVb5gYyQEruUl+r+6vuXdHvsd9B99CFLDmHm8iy5cQkSD8InMPctnKG0hff13K5B42OEWWULNiu8uEe13K6nlN0daHlstQU4u991KgN8e+RN+9wVt2HjKsmLpw/XA4rz378nar+pfDJW+slXDmHmczmJ0nKFi0eHLB+4SYTyx5az/EuREDkmE48HY+q/Guy/LV4r2u5XU8psjLY+tliAnG3wIurjAtbJsKfLcsUbi886c1Ir3aH5zpOWx1RLkxMrK+eKPA+sqi/sadfEJola8R/ObIy2PrZYgJ5cpK9sKXCvL/ZZa8R7Nb44cbe3lCHLCZYX/ENN5oCv0aBjGwTnxT8MwjEJYWTEMozBWVgzDKIyVFcMwCmNlxTCMwlhZMQyjKD9//h/7Hr9KIxFewAAAAABJRU5ErkJggg==;" vertex="1" parent="1">
          <mxGeometry x="50" y="271" width="370" height="63" as="geometry" />
        </mxCell>
        <mxCell id="bQvXC9ChqrMoX_zcABg8-15" value="Datas" style="text;strokeColor=none;fillColor=none;align=left;verticalAlign=middle;spacingLeft=4;spacingRight=4;overflow=hidden;points=[[0,0.5],[1,0.5]];portConstraint=eastwest;rotatable=0;whiteSpace=wrap;html=1;" vertex="1" parent="1">
          <mxGeometry x="50" y="220" width="80" height="30" as="geometry" />
        </mxCell>
        <mxCell id="bQvXC9ChqrMoX_zcABg8-16" value="class diagram" style="text;strokeColor=none;fillColor=none;align=left;verticalAlign=middle;spacingLeft=4;spacingRight=4;overflow=hidden;points=[[0,0.5],[1,0.5]];portConstraint=eastwest;rotatable=0;whiteSpace=wrap;html=1;fontSize=29;" vertex="1" parent="1">
          <mxGeometry x="50" y="-970" width="260" height="150" as="geometry" />
        </mxCell>
        <mxCell id="bQvXC9ChqrMoX_zcABg8-17" value="table" style="text;strokeColor=none;fillColor=none;align=left;verticalAlign=middle;spacingLeft=4;spacingRight=4;overflow=hidden;points=[[0,0.5],[1,0.5]];portConstraint=eastwest;rotatable=0;whiteSpace=wrap;html=1;fontSize=28;" vertex="1" parent="1">
          <mxGeometry x="60" y="-100" width="250" height="60" as="geometry" />
        </mxCell>
      </root>
    </mxGraphModel>
  </diagram>
</mxfile>
